<?plantuml 1.2026.1?><svg xmlns="http://www.w3.org/2000/svg" xmlns:xlink="http://www.w3.org/1999/xlink" contentStyleType="text/css" data-diagram-type="DESCRIPTION" height="501px" preserveAspectRatio="none" style="width:693px;height:501px;" version="1.1" viewBox="0 0 693 501" width="693px" zoomAndPan="magnify"><title>AI Gateway &#8212; S&#417; &#273;&#7891; th&#224;nh ph&#7847;n</title><defs/><g><g class="title" data-source-line="18"><text fill="#000000" font-family="Arial" font-size="22" font-weight="bold" lengthAdjust="spacing" textLength="397.1064" x="143.7738" y="35.4209">AI Gateway &#8212; S&#417; &#273;&#7891; th&#224;nh ph&#7847;n</text></g><!--entity domain--><g class="entity" data-qualified-name="domain" data-source-line="20" id="ent0002"><rect fill="#E8F2FF" height="57.9375" rx="2.5" ry="2.5" style="stroke:#E7E5E4;stroke-width:1;" width="226.293" x="130.53" y="58.6094"/><rect fill="#E8F2FF" height="10" style="stroke:#E7E5E4;stroke-width:1;" width="15" x="336.823" y="63.6094"/><rect fill="#E8F2FF" height="2" style="stroke:#E7E5E4;stroke-width:1;" width="4" x="334.823" y="65.6094"/><rect fill="#E8F2FF" height="2" style="stroke:#E7E5E4;stroke-width:1;" width="4" x="334.823" y="69.6094"/><text fill="#1C1917" font-family="Arial" font-size="12" lengthAdjust="spacing" textLength="108.7969" x="145.53" y="89.748">D&#7883;ch v&#7909; nghi&#7879;p v&#7909;</text><text fill="#1C1917" font-family="Arial" font-size="12" lengthAdjust="spacing" textLength="186.293" x="145.53" y="103.7168">Writing/Speaking/Conversation</text></g><!--entity gateway--><g class="entity" data-qualified-name="gateway" data-source-line="21" id="ent0003"><rect fill="#ECFDF3" height="57.9375" rx="2.5" ry="2.5" style="stroke:#E7E5E4;stroke-width:1;" width="138.8828" x="174.23" y="167.6094"/><rect fill="#ECFDF3" height="10" style="stroke:#E7E5E4;stroke-width:1;" width="15" x="293.1128" y="172.6094"/><rect fill="#ECFDF3" height="2" style="stroke:#E7E5E4;stroke-width:1;" width="4" x="291.1128" y="174.6094"/><rect fill="#ECFDF3" height="2" style="stroke:#E7E5E4;stroke-width:1;" width="4" x="291.1128" y="178.6094"/><text fill="#1C1917" font-family="Arial" font-size="12" lengthAdjust="spacing" textLength="68.5723" x="189.23" y="198.748">AI Gateway</text><text fill="#1C1917" font-family="Arial" font-size="12" lengthAdjust="spacing" textLength="98.8828" x="189.23" y="212.7168">AiClientManager</text></g><!--entity config--><g class="entity" data-qualified-name="config" data-source-line="22" id="ent0004"><rect fill="#FFF3D8" height="57.9375" rx="2.5" ry="2.5" style="stroke:#E7E5E4;stroke-width:1;" width="221.834" x="465.82" y="167.6094"/><rect fill="#FFF3D8" height="10" style="stroke:#E7E5E4;stroke-width:1;" width="15" x="667.654" y="172.6094"/><rect fill="#FFF3D8" height="2" style="stroke:#E7E5E4;stroke-width:1;" width="4" x="665.654" y="174.6094"/><rect fill="#FFF3D8" height="2" style="stroke:#E7E5E4;stroke-width:1;" width="4" x="665.654" y="178.6094"/><text fill="#1C1917" font-family="Arial" font-size="12" lengthAdjust="spacing" textLength="68.8652" x="480.82" y="198.748">C&#7845;u h&#236;nh AI</text><text fill="#1C1917" font-family="Arial" font-size="12" lengthAdjust="spacing" textLength="181.834" x="480.82" y="212.7168">service &#8594; model &#8594; connection</text></g><!--entity wire--><g class="entity" data-qualified-name="wire" data-source-line="23" id="ent0005"><rect fill="#F3E8FF" height="57.9375" rx="2.5" ry="2.5" style="stroke:#E7E5E4;stroke-width:1;" width="214.1992" x="136.57" y="335.6094"/><rect fill="#F3E8FF" height="10" style="stroke:#E7E5E4;stroke-width:1;" width="15" x="330.7692" y="340.6094"/><rect fill="#F3E8FF" height="2" style="stroke:#E7E5E4;stroke-width:1;" width="4" x="328.7692" y="342.6094"/><rect fill="#F3E8FF" height="2" style="stroke:#E7E5E4;stroke-width:1;" width="4" x="328.7692" y="346.6094"/><text fill="#1C1917" font-family="Arial" font-size="12" lengthAdjust="spacing" textLength="84.5449" x="151.57" y="366.748">Wire adapters</text><text fill="#1C1917" font-family="Arial" font-size="12" lengthAdjust="spacing" textLength="174.1992" x="151.57" y="380.7168">Messages &#183; Chat &#183; Responses</text></g><!--entity provider--><g class="entity" data-qualified-name="provider" data-source-line="24" id="ent0006"><path d="M196.0657,454.2403 C199.293,449.1979 204.8709,449.4372 207.8082,454.5748 C210.8786,447.9426 215.5846,448.0101 219.9305,453.2751 C223.4042,446.2986 228.8004,447.096 233.2395,452.2126 C236.1191,446.6392 242.0028,446.046 245.7123,451.2525 C249.0618,446.2068 254.5574,446.7691 256.7189,452.4693 C260.6592,447.1854 266.21,447.6139 269.6614,453.0592 C273.4387,447.6264 278.3104,447.3462 282.0387,453.1133 C286.8203,448.5649 290.251,449.5077 292.5551,455.569 C300.6038,458.8257 303.139,463.2784 296.6544,470.5199 C300.8534,476.6054 301.2721,481.0771 293.0194,483.7384 C289.8019,490.7962 286.0113,491.8466 280.5494,485.8887 C277.8105,491.636 272.661,491.4364 269.4124,486.4158 C266.4951,492.4533 261.6064,492.5064 257.6544,487.5194 C254.9247,493.5623 249.0388,494.1182 244.8837,489.1767 C240.1975,494.3697 235.4482,493.3541 232.1298,487.5853 C228.645,492.7896 224.3324,493.3554 220.5057,487.9603 C216.6123,493.099 210.5403,493.0885 207.9115,486.5915 C204.2682,491.2598 198.2063,491.7968 196.0117,485.0776 C186.5903,483.8884 182.6946,478.5898 188.3237,469.818 C183.156,461.0521 185.5874,455.2302 196.0657,454.2403" fill="#F5F5F0" style="stroke:#000000;stroke-width:1;"/><text fill="#000000" font-family="Arial" font-size="14" lengthAdjust="spacing" textLength="83.6445" x="201.85" y="473.4245">AI Providers</text></g><g class="entity" data-qualified-name="GMN11" data-source-line="32" id="ent0012"><path d="M147.68,260.4494 L147.68,300.715 A0,0 0 0 0 147.68,300.715 L339.6732,300.715 A0,0 0 0 0 339.6732,300.715 L339.6732,270.4494 L329.6732,260.4494 L247.67,260.4494 L243.67,225.9194 L239.67,260.4494 L147.68,260.4494 A0,0 0 0 0 147.68,260.4494" fill="#FFFFFF" style="stroke:#000000;stroke-width:1;"/><path d="M329.6732,260.4494 L329.6732,270.4494 L339.6732,270.4494 L329.6732,260.4494" fill="#FFFFFF" style="stroke:#000000;stroke-width:1;"/><text fill="#000000" font-family="Arial" font-size="13" lengthAdjust="spacing" textLength="161.9224" x="153.68" y="277.5163">Gateway t&#7853;p trung retry,</text><text fill="#000000" font-family="Arial" font-size="13" lengthAdjust="spacing" textLength="170.9932" x="153.68" y="292.6491">circuit breaker v&#224; logging.</text></g><!--link domain to gateway--><g class="link" data-entity-1="ent0002" data-entity-2="ent0003" data-link-type="dependency" data-source-line="26" id="lnk7"><path d="M243.67,116.8694 C243.67,132.5194 243.67,145.7294 243.67,161.3694" fill="none" id="domain-to-gateway" style="stroke:#78716C;stroke-width:1;"/><polygon fill="#78716C" points="243.67,167.3694,247.67,158.3694,243.67,162.3694,239.67,158.3694,243.67,167.3694" style="stroke:#78716C;stroke-width:1;"/><text fill="#000000" font-family="Arial" font-size="13" lengthAdjust="spacing" textLength="59.0269" x="202.67" y="146.6463">toolCall()</text></g><!--link gateway to config--><g class="link" data-entity-1="ent0003" data-entity-2="ent0004" data-link-type="dependency" data-source-line="27" id="lnk8"><path d="M313.27,196.5794 C357.21,196.5794 409.22,196.5794 459.53,196.5794" fill="none" id="gateway-to-config" style="stroke:#78716C;stroke-width:1;"/><polygon fill="#78716C" points="465.53,196.5794,456.53,192.5794,460.53,196.5794,456.53,200.5794,465.53,196.5794" style="stroke:#78716C;stroke-width:1;"/><text fill="#000000" font-family="Arial" font-size="13" lengthAdjust="spacing" textLength="47.3726" x="387.82" y="192.6463">resolve</text></g><!--link gateway to wire--><g class="link" data-entity-1="ent0003" data-entity-2="ent0005" data-link-type="dependency" data-source-line="28" id="lnk9"><path d="M173.86,203.7594 C103.81,213.9694 11,237.5194 46.47,289.0794 C67.19,319.2094 95.9896,335.509 130.3996,346.399" fill="none" id="gateway-to-wire" style="stroke:#78716C;stroke-width:1;"/><polygon fill="#78716C" points="136.12,348.2094,128.7464,341.6802,131.353,346.7007,126.3325,349.3074,136.12,348.2094" style="stroke:#78716C;stroke-width:1;"/><text fill="#000000" font-family="Arial" font-size="13" lengthAdjust="spacing" textLength="83.1987" x="16.53" y="285.1463">WireRequest</text></g><!--link wire to provider--><g class="link" data-entity-1="ent0005" data-entity-2="ent0006" data-link-type="dependency" data-source-line="29" id="lnk10"><path d="M243.67,394.0394 C243.67,410.1694 243.67,423.8794 243.67,438.9794" fill="none" id="wire-to-provider" style="stroke:#78716C;stroke-width:1;"/><polygon fill="#78716C" points="243.67,444.9794,247.67,435.9794,243.67,439.9794,239.67,435.9794,243.67,444.9794" style="stroke:#78716C;stroke-width:1;"/><text fill="#000000" font-family="Arial" font-size="13" lengthAdjust="spacing" textLength="58.1953" x="203.17" y="424.0563">HTTP API</text></g><?plantuml-src hLFDZjCm4BxxAORj1IGATClIqWDII3VGmw9gkz9UUd6JQMAjQmVRQRMBa3Z1WHC_3x0SLbpWZDJUAE8zia_294tRF03A8VRCDv-_yNo-unAS8QII2yKaJXqu3KR4YOD860oTq8hP2w5IRlWC9ZoyY8tELEHhgGqumvMb52fNGzc4HteXL0nJBYtMCX5EUIPTe9LxnUbSpmWkQ_dYHAvYYV260JpN9aApEQc17Jp2nnGjYgjOAsmzRNMgs4XS8RGEsTiQNwXdgLQaxZ_nUSReHGNkT3kj9o5ZJZZIwmtW1NUuu9Tm--uhZFv-Wp-VyjKNSCdwMYMG9ldoks9ih-YWdwy-XWdCyzKDg3WH-Uf3Mkx6wjm8H_VtS9GYloWMlbPpD9ONypW0RY7ICnePD8wxmM4Gr6dtIiRA4xuK53tXYiTeoiguajauzeD-qAwN-ldo9eDa_OC4UuEnicZc8aIuVVyPPZf2MQv2hTJ66IKVRQSYXaOG1Er-jqvtJWu27l7KaVInEa5hIOM5tx_0JxWh_gTe2MtHbbIBeg0HjAafQadgB2hR6Hez5pIv3IYjTWGyekyHOzLTD4lVDf_jEkoHcRNqkPHtxx5ji4dML0IgPFV8SrRBEUu1MvfIJG-ABaxnTORMiJAq0-oKzE3bsTaGlE60CQKTmaGxfsUWfrijvAcjFLo-_9dIoydeVHXqvl8-9KDXmamuc1WQE37ErzSWTHpJx1ymL14KjEmV?></g></svg>