<?plantuml 1.2026.1?><svg xmlns="http://www.w3.org/2000/svg" xmlns:xlink="http://www.w3.org/1999/xlink" contentStyleType="text/css" data-diagram-type="DESCRIPTION" height="430px" preserveAspectRatio="none" style="width:602px;height:430px;" version="1.1" viewBox="0 0 602 430" width="602px" zoomAndPan="magnify"><title>N&#7873;n t&#7843;ng luy&#7879;n t&#7853;p 4 k&#7929; n&#259;ng</title><defs/><g><g class="title" data-source-line="12"><text fill="#000000" font-family="Arial" font-size="22" font-weight="bold" lengthAdjust="spacing" textLength="367.1572" x="113.2132" y="35.4209">N&#7873;n t&#7843;ng luy&#7879;n t&#7853;p 4 k&#7929; n&#259;ng</text></g><!--entity ui--><g class="entity" data-qualified-name="ui" data-source-line="14" id="ent0002"><rect fill="#E8F2FF" height="35.1328" rx="2.5" ry="2.5" style="stroke:#E7E5E4;stroke-width:1;" width="89.6338" x="249.04" y="58.6094"/><text fill="#1C1917" font-family="Arial" font-size="13" lengthAdjust="spacing" textLength="69.6338" x="259.04" y="80.6763">Practice UI</text></g><!--entity listening--><g class="entity" data-qualified-name="listening" data-source-line="16" id="ent0003"><rect fill="#F3E8FF" height="50.2656" rx="2.5" ry="2.5" style="stroke:#E7E5E4;stroke-width:1;" width="105.7061" x="12" y="153.7394"/><text fill="#1C1917" font-family="Arial" font-size="13" lengthAdjust="spacing" textLength="59.0649" x="22" y="175.8063">Listening</text><text fill="#1C1917" font-family="Arial" font-size="13" lengthAdjust="spacing" textLength="85.7061" x="22" y="190.9391">audio + MCQ</text></g><!--entity reading--><g class="entity" data-qualified-name="reading" data-source-line="17" id="ent0004"><rect fill="#ECFDF3" height="50.2656" rx="2.5" ry="2.5" style="stroke:#E7E5E4;stroke-width:1;" width="123.6636" x="153.02" y="153.7394"/><text fill="#1C1917" font-family="Arial" font-size="13" lengthAdjust="spacing" textLength="53.3521" x="163.02" y="175.8063">Reading</text><text fill="#1C1917" font-family="Arial" font-size="13" lengthAdjust="spacing" textLength="103.6636" x="163.02" y="190.9391">passage + MCQ</text></g><!--entity writing--><g class="entity" data-qualified-name="writing" data-source-line="18" id="ent0005"><rect fill="#FFF3D8" height="50.2656" rx="2.5" ry="2.5" style="stroke:#E7E5E4;stroke-width:1;" width="124.9775" x="311.36" y="153.7394"/><text fill="#1C1917" font-family="Arial" font-size="13" lengthAdjust="spacing" textLength="47.0107" x="321.36" y="175.8063">Writing</text><text fill="#1C1917" font-family="Arial" font-size="13" lengthAdjust="spacing" textLength="104.9775" x="321.36" y="190.9391">prompt + editor</text></g><!--entity speaking--><g class="entity" data-qualified-name="speaking" data-source-line="19" id="ent0006"><rect fill="#FFE8D8" height="50.2656" rx="2.5" ry="2.5" style="stroke:#E7E5E4;stroke-width:1;" width="125.4536" x="471.13" y="153.7394"/><text fill="#1C1917" font-family="Arial" font-size="13" lengthAdjust="spacing" textLength="60.0996" x="481.13" y="175.8063">Speaking</text><text fill="#1C1917" font-family="Arial" font-size="13" lengthAdjust="spacing" textLength="105.4536" x="481.13" y="190.9391">mic + transcript</text></g><!--entity api--><g class="entity" data-qualified-name="api" data-source-line="21" id="ent0007"><rect fill="#F5F5F0" height="50.2656" rx="2.5" ry="2.5" style="stroke:#E7E5E4;stroke-width:1;" width="158.1567" x="214.77" y="264.0094"/><text fill="#1C1917" font-family="Arial" font-size="13" lengthAdjust="spacing" textLength="57.313" x="224.77" y="286.0763">API layer</text><text fill="#1C1917" font-family="Arial" font-size="13" lengthAdjust="spacing" textLength="138.1567" x="224.77" y="301.2091">TanStack Query + ky</text></g><!--entity backend--><g class="entity" data-qualified-name="backend" data-source-line="22" id="ent0008"><rect fill="#F5F5F0" height="50.2656" rx="2.5" ry="2.5" style="stroke:#E7E5E4;stroke-width:1;" width="258.2974" x="164.7" y="374.2694"/><text fill="#1C1917" font-family="Arial" font-size="13" lengthAdjust="spacing" textLength="113.5215" x="174.7" y="396.3363">Backend services</text><text fill="#1C1917" font-family="Arial" font-size="13" lengthAdjust="spacing" textLength="238.2974" x="174.7" y="411.4691">content, scoring, feedback, progress</text></g><!--link ui to listening--><g class="link" data-entity-1="ent0002" data-entity-2="ent0003" data-link-type="dependency" data-source-line="24" id="lnk9"><path d="M255.27,94.1494 C217.53,110.7394 165.2826,133.7145 123.2726,152.1845" fill="none" id="ui-to-listening" style="stroke:#78716C;stroke-width:1;"/><polygon fill="#78716C" points="117.78,154.5994,127.6288,154.6388,122.3572,152.587,124.409,147.3154,117.78,154.5994" style="stroke:#78716C;stroke-width:1;"/></g><!--link ui to reading--><g class="link" data-entity-1="ent0002" data-entity-2="ent0004" data-link-type="dependency" data-source-line="25" id="lnk10"><path d="M280.81,93.8094 C268.1,110.0094 252.3338,130.099 237.8338,148.579" fill="none" id="ui-to-reading" style="stroke:#78716C;stroke-width:1;"/><polygon fill="#78716C" points="234.13,153.2994,242.8326,148.688,237.2165,149.3657,236.5387,143.7496,234.13,153.2994" style="stroke:#78716C;stroke-width:1;"/></g><!--link ui to writing--><g class="link" data-entity-1="ent0002" data-entity-2="ent0005" data-link-type="dependency" data-source-line="26" id="lnk11"><path d="M307.06,93.8094 C319.93,110.0094 335.918,130.1213 350.598,148.6013" fill="none" id="ui-to-writing" style="stroke:#78716C;stroke-width:1;"/><polygon fill="#78716C" points="354.33,153.2994,351.864,143.7642,351.22,149.3843,345.5999,148.7403,354.33,153.2994" style="stroke:#78716C;stroke-width:1;"/></g><!--link ui to speaking--><g class="link" data-entity-1="ent0002" data-entity-2="ent0006" data-link-type="dependency" data-source-line="27" id="lnk12"><path d="M334.29,94.1494 C372.9,110.3394 425.9775,132.6073 469.6975,150.9573" fill="none" id="ui-to-speaking" style="stroke:#78716C;stroke-width:1;"/><polygon fill="#78716C" points="475.23,153.2794,468.4794,146.108,470.6196,151.3443,465.3833,153.4846,475.23,153.2794" style="stroke:#78716C;stroke-width:1;"/></g><!--link listening to api--><g class="link" data-entity-1="ent0003" data-entity-2="ent0007" data-link-type="dependency" data-source-line="29" id="lnk13"><path d="M116.82,204.4394 C154.29,222.1594 199.2453,243.4156 236.6753,261.1056" fill="none" id="listening-to-api" style="stroke:#78716C;stroke-width:1;"/><polygon fill="#78716C" points="242.1,263.6694,235.6722,256.2073,237.5794,261.5329,232.2538,263.4401,242.1,263.6694" style="stroke:#78716C;stroke-width:1;"/></g><!--link reading to api--><g class="link" data-entity-1="ent0004" data-entity-2="ent0007" data-link-type="dependency" data-source-line="30" id="lnk14"><path d="M232.78,204.4394 C245.71,222.1594 259.553,241.1328 272.463,258.8228" fill="none" id="reading-to-api" style="stroke:#78716C;stroke-width:1;"/><polygon fill="#78716C" points="276,263.6694,273.9256,254.0415,273.0525,259.6305,267.4634,258.7575,276,263.6694" style="stroke:#78716C;stroke-width:1;"/></g><!--link writing to api--><g class="link" data-entity-1="ent0005" data-entity-2="ent0007" data-link-type="dependency" data-source-line="31" id="lnk15"><path d="M355.7,204.4394 C342.61,222.1594 328.5772,241.1549 315.4972,258.8449" fill="none" id="writing-to-api" style="stroke:#78716C;stroke-width:1;"/><polygon fill="#78716C" points="311.93,263.6694,320.4971,258.8109,314.9027,259.649,314.0645,254.0546,311.93,263.6694" style="stroke:#78716C;stroke-width:1;"/></g><!--link speaking to api--><g class="link" data-entity-1="ent0006" data-entity-2="ent0007" data-link-type="dependency" data-source-line="32" id="lnk16"><path d="M479.39,204.4394 C440.12,222.1594 392.7996,243.513 353.5696,261.203" fill="none" id="speaking-to-api" style="stroke:#78716C;stroke-width:1;"/><polygon fill="#78716C" points="348.1,263.6694,357.9487,263.6162,352.658,261.614,354.6602,256.3233,348.1,263.6694" style="stroke:#78716C;stroke-width:1;"/></g><!--link api to backend--><g class="link" data-entity-1="ent0007" data-entity-2="ent0008" data-link-type="dependency" data-source-line="33" id="lnk17"><path d="M293.85,314.7094 C293.85,332.4294 293.85,350.2394 293.85,367.9394" fill="none" id="api-to-backend" style="stroke:#78716C;stroke-width:1;"/><polygon fill="#78716C" points="293.85,373.9394,297.85,364.9394,293.85,368.9394,289.85,364.9394,293.85,373.9394" style="stroke:#78716C;stroke-width:1;"/></g><?plantuml-src LPBDRjD04CVl-nH3SoILC6b9k22bQLUg15LBYhZaCbrFt5MSNMjsJHGG1yI11-7C0z1SUP6y2MF7IunyyNpyvkC_-om-qfgWAj4w5LRMLSYuXWSqgu9zxVAPBpr3P7H1GkHYBoiyOkutrXMmn39GBvBJ4kioQk_Y3KhzALiiUt4c4z4L9S4N1N3XEIS-T1hGcCxfJBmDtFaoaxtEnfrlRZyJP2FrjLTlokmtNV9uCivU6QMYZLB_Ph_xvY3kdtxAc6MztUz-jEQl2ivWjT_z1lVdkokKEevqSijeeZK47wvF00FK5WPN4_rIw__ItjeGoSdw2uTrRZqyXtUpkvOeKmW6UYIexdFl2VEMgZ04BAZ7yI4axMRwKe_wr4UsyK2nNrTH8CfjzDnocqDGkcazkfpqkNb5k6h1jJL2jQSqRAlOag4BD-ZLHD0-ExszXXAtn0jtZsuUvLN0NKsybJghRSjZ9UBeS_bUzCaBIIMNGo3-94g6XJDoEda-GmZ6ipGSmf8eRnxQ46IbWYc4jk93XwQgIkG_FNrpr3GvEh6IsMcGpBIOKiTZD7uPM2MPavtaI_O_KPAZsRBvxsRx2m00?></g></svg>