<?plantuml 1.2026.1?><svg xmlns="http://www.w3.org/2000/svg" xmlns:xlink="http://www.w3.org/1999/xlink" contentStyleType="text/css" data-diagram-type="ACTIVITY" height="601px" preserveAspectRatio="none" style="width:675px;height:601px;" version="1.1" viewBox="0 0 675 601" width="675px" zoomAndPan="magnify"><title>M&#244; h&#236;nh t&#237;n hi&#7879;u v&#224; tham s&#7889; ch&#7845;m &#273;i&#7875;m</title><defs/><g><g class="title" data-source-line="12"><text fill="#000000" font-family="Arial" font-size="22" font-weight="bold" lengthAdjust="spacing" textLength="489.2637" x="91.6707" y="35.4209">M&#244; h&#236;nh t&#237;n hi&#7879;u v&#224; tham s&#7889; ch&#7845;m &#273;i&#7875;m</text></g><ellipse cx="292.8811" cy="61.6094" fill="#FFFFFF" rx="10" ry="10" style="stroke:#000000;stroke-width:1;"/><rect fill="#E8F2FF" height="50.2656" rx="12.5" ry="12.5" style="stroke:#E7E5E4;stroke-width:1;" width="236.855" x="174.4536" y="91.6094"/><text fill="#1C1917" font-family="Arial" font-size="13" font-weight="bold" lengthAdjust="spacing" textLength="54.4375" x="184.4536" y="113.6763">B&#224;i l&#224;m</text><text fill="#1C1917" font-family="Arial" font-size="13" lengthAdjust="spacing" textLength="216.855" x="184.4536" y="128.8091">Writing text ho&#7863;c Speaking audio</text><line style="stroke:#78716C;stroke-width:1.5;" x1="143.4895" x2="444.3706" y1="161.875" y2="161.875"/><rect fill="#F3E8FF" height="80.5313" rx="12.5" ry="12.5" style="stroke:#E7E5E4;stroke-width:1;" width="274.979" x="6" y="181.875"/><text fill="#1C1917" font-family="Arial" font-size="13" font-weight="bold" lengthAdjust="spacing" textLength="110.6841" x="16" y="203.9419">Writing signals</text><text fill="#1C1917" font-family="Arial" font-size="13" lengthAdjust="spacing" textLength="254.979" x="16" y="219.0747">Ng&#7919; ph&#225;p &#8212; ch&#237;nh t&#7843; &#8212; s&#7889; t&#7915;/c&#226;u/&#273;o&#7841;n</text><text fill="#1C1917" font-family="Arial" font-size="13" lengthAdjust="spacing" textLength="207.3145" x="16" y="234.2075">T&#7915; n&#7889;i &#8212; &#273;&#7897; &#273;a d&#7841;ng t&#7915; &#8212; CEFR</text><text fill="#1C1917" font-family="Arial" font-size="13" lengthAdjust="spacing" textLength="164.3408" x="16" y="249.3403">&#272;&#7897; ph&#7911; &#273;&#7873; &#8212; ph&#225;t tri&#7875;n &#253;</text><rect fill="#F3E8FF" height="80.5313" rx="12.5" ry="12.5" style="stroke:#E7E5E4;stroke-width:1;" width="270.7832" x="308.979" y="181.875"/><text fill="#1C1917" font-family="Arial" font-size="13" font-weight="bold" lengthAdjust="spacing" textLength="124.1665" x="318.979" y="203.9419">Speaking signals</text><text fill="#1C1917" font-family="Arial" font-size="13" lengthAdjust="spacing" textLength="250.7832" x="318.979" y="219.0747">Transcript &#8212; t&#7889;c &#273;&#7897; n&#243;i &#8212; ng&#7853;p ng&#7915;ng</text><text fill="#1C1917" font-family="Arial" font-size="13" lengthAdjust="spacing" textLength="213.3384" x="318.979" y="234.2075">T&#7915; v&#7921;ng &#8212; c&#7845;u tr&#250;c c&#226;u &#8212; t&#7915; n&#7889;i</text><text fill="#1C1917" font-family="Arial" font-size="13" lengthAdjust="spacing" textLength="176.9536" x="318.979" y="249.3403">Ph&#225;t &#226;m &#8212; m&#7913;c &#273;&#7897; b&#225;m &#273;&#7873;</text><line style="stroke:#78716C;stroke-width:1.5;" x1="143.4895" x2="444.3706" y1="282.4063" y2="282.4063"/><rect fill="#FFF3D8" height="50.2656" rx="12.5" ry="12.5" style="stroke:#E7E5E4;stroke-width:1;" width="256.209" x="164.7766" y="302.4063"/><text fill="#1C1917" font-family="Arial" font-size="13" font-weight="bold" lengthAdjust="spacing" textLength="128.6416" x="174.7766" y="324.4731">Tham s&#7889; c&#7845;u h&#236;nh</text><text fill="#1C1917" font-family="Arial" font-size="13" lengthAdjust="spacing" textLength="236.209" x="174.7766" y="339.606">Thresholds, weights, caps, penalties</text><rect fill="#ECFDF3" height="80.5313" rx="12.5" ry="12.5" style="stroke:#E7E5E4;stroke-width:1;" width="157.0269" x="214.3677" y="372.6719"/><text fill="#1C1917" font-family="Arial" font-size="13" font-weight="bold" lengthAdjust="spacing" textLength="93.1963" x="224.3677" y="394.7388">B&#7897; t&#237;nh &#273;i&#7875;m</text><text fill="#1C1917" font-family="Arial" font-size="13" lengthAdjust="spacing" textLength="123.5762" x="224.3677" y="409.8716">Ch&#7845;m theo ti&#234;u ch&#237;</text><text fill="#1C1917" font-family="Arial" font-size="13" lengthAdjust="spacing" textLength="137.0269" x="224.3677" y="425.0044">&#193;p &#273;i&#7873;u ki&#7879;n gi&#7899;i h&#7841;n</text><text fill="#1C1917" font-family="Arial" font-size="13" lengthAdjust="spacing" textLength="130.6538" x="224.3677" y="440.1372">T&#7841;o nh&#7853;n x&#233;t nhanh</text><path d="M414.1318,485.7695 L414.1318,509.4688 L394.1318,513.4688 L414.1318,517.4688 L414.1318,541.168 A0,0 0 0 0 414.1318,541.168 L668.605,541.168 A0,0 0 0 0 668.605,541.168 L668.605,495.7695 L658.605,485.7695 L414.1318,485.7695 A0,0 0 0 0 414.1318,485.7695" fill="#FFFFFF" style="stroke:#000000;stroke-width:1;"/><path d="M658.605,485.7695 L658.605,495.7695 L668.605,495.7695 L658.605,485.7695" fill="#FFFFFF" style="stroke:#000000;stroke-width:1;"/><text fill="#000000" font-family="Arial" font-size="13" lengthAdjust="spacing" textLength="218.6323" x="420.1318" y="502.8364">T&#237;n hi&#7879;u &#273;&#7871;n t&#7915; nhi&#7873;u ngu&#7891;n kh&#225;c</text><text fill="#000000" font-family="Arial" font-size="13" lengthAdjust="spacing" textLength="205.1499" x="420.1318" y="517.9692">nhau. H&#7879; th&#7889;ng ki&#7875;m so&#225;t &#273;i&#7875;m</text><text fill="#000000" font-family="Arial" font-size="13" lengthAdjust="spacing" textLength="233.4731" x="420.1318" y="533.1021">b&#7857;ng tham s&#7889; v&#224; &#273;i&#7873;u ki&#7879;n gi&#7899;i h&#7841;n.</text><rect fill="#F5F5F0" height="80.5313" rx="12.5" ry="12.5" style="stroke:#E7E5E4;stroke-width:1;" width="202.5015" x="191.6304" y="473.2031"/><text fill="#1C1917" font-family="Arial" font-size="13" font-weight="bold" lengthAdjust="spacing" textLength="48.6294" x="201.6304" y="495.27">&#272;&#7847;u ra</text><text fill="#1C1917" font-family="Arial" font-size="13" lengthAdjust="spacing" textLength="108.2656" x="201.6304" y="510.4028">&#272;i&#7875;m tham kh&#7843;o</text><text fill="#1C1917" font-family="Arial" font-size="13" lengthAdjust="spacing" textLength="104.146" x="201.6304" y="525.5356">Nh&#7853;n x&#233;t nhanh</text><text fill="#1C1917" font-family="Arial" font-size="13" lengthAdjust="spacing" textLength="182.5015" x="201.6304" y="540.6685">C&#7901; c&#7847;n ng&#432;&#7901;i ch&#7845;m xem x&#233;t</text><ellipse cx="292.8811" cy="584.7344" fill="none" rx="11" ry="11" style="stroke:#000000;stroke-width:1;"/><ellipse cx="292.8811" cy="584.7344" fill="#FFFFFF" rx="6" ry="6" style="stroke:#000000;stroke-width:1;"/><line style="stroke:#78716C;stroke-width:1;" x1="292.8811" x2="292.8811" y1="71.6094" y2="91.6094"/><polygon fill="#78716C" points="288.8811,81.6094,292.8811,91.6094,296.8811,81.6094,292.8811,85.6094" style="stroke:#78716C;stroke-width:1;"/><line style="stroke:#78716C;stroke-width:1;" x1="143.4895" x2="143.4895" y1="163.375" y2="181.875"/><polygon fill="#78716C" points="139.4895,171.875,143.4895,181.875,147.4895,171.875,143.4895,175.875" style="stroke:#78716C;stroke-width:1;"/><line style="stroke:#78716C;stroke-width:1;" x1="444.3706" x2="444.3706" y1="163.375" y2="181.875"/><polygon fill="#78716C" points="440.3706,171.875,444.3706,181.875,448.3706,171.875,444.3706,175.875" style="stroke:#78716C;stroke-width:1;"/><line style="stroke:#78716C;stroke-width:1;" x1="143.4895" x2="143.4895" y1="262.4063" y2="282.4063"/><polygon fill="#78716C" points="139.4895,272.4063,143.4895,282.4063,147.4895,272.4063,143.4895,276.4063" style="stroke:#78716C;stroke-width:1;"/><line style="stroke:#78716C;stroke-width:1;" x1="444.3706" x2="444.3706" y1="262.4063" y2="282.4063"/><polygon fill="#78716C" points="440.3706,272.4063,444.3706,282.4063,448.3706,272.4063,444.3706,276.4063" style="stroke:#78716C;stroke-width:1;"/><line style="stroke:#78716C;stroke-width:1;" x1="292.8811" x2="292.8811" y1="141.875" y2="161.875"/><polygon fill="#78716C" points="288.8811,151.875,292.8811,161.875,296.8811,151.875,292.8811,155.875" style="stroke:#78716C;stroke-width:1;"/><line style="stroke:#78716C;stroke-width:1;" x1="292.8811" x2="292.8811" y1="283.9063" y2="302.4063"/><polygon fill="#78716C" points="288.8811,292.4063,292.8811,302.4063,296.8811,292.4063,292.8811,296.4063" style="stroke:#78716C;stroke-width:1;"/><line style="stroke:#78716C;stroke-width:1;" x1="292.8811" x2="292.8811" y1="352.6719" y2="372.6719"/><polygon fill="#78716C" points="288.8811,362.6719,292.8811,372.6719,296.8811,362.6719,292.8811,366.6719" style="stroke:#78716C;stroke-width:1;"/><line style="stroke:#78716C;stroke-width:1;" x1="292.8811" x2="292.8811" y1="453.2031" y2="473.2031"/><polygon fill="#78716C" points="288.8811,463.2031,292.8811,473.2031,296.8811,463.2031,292.8811,467.2031" style="stroke:#78716C;stroke-width:1;"/><line style="stroke:#78716C;stroke-width:1;" x1="292.8811" x2="292.8811" y1="553.7344" y2="573.7344"/><polygon fill="#78716C" points="288.8811,563.7344,292.8811,573.7344,296.8811,563.7344,292.8811,567.7344" style="stroke:#78716C;stroke-width:1;"/><?plantuml-src VLD1QzH05BxdLppPgxIkQztgbaAxRV1Y4RlWPI-psMbcs6Gc99EsAeB5WzSkUX4HkYrIQYqg2aA2U9Z5_p7-4jzCidRhGG99vhqtx_lUUz-xfXYDAIGHuSBBHbma92Kn34Wm2bEPYs5NHZ85bHAHeOiADHULCJAKUro4i4EYZCvvXdI7v97ofL1R1FElfPn4StuIABxBrMDuwW6iotH8qmgeGTjqYTv2gxrRsvf1yqwpNTks-HCApHQUrj9KxjKXxULsytRWFVCynLL4uRx-1an_50oKlX30k2bVvh2hZq0nozoKOmYOATx7C1sZyqNiUPaYgVAynkQoVzFtxwuCLjVr4OT87yKhYuFLldYKScMhLNHV0PEc-1x0TaB9o1f9FkIoWrcIY2jar_1RcCYbcTtBU2YmKLMohT2Kdo1XUfB0x-UlaGqIHRgcE75dHr6PydmnqCVvudICU1FH5pqqWK0dTs7JiIdVu9l0qFf3TyLvkfl-mxwO7bf_manvwc8FdC_2AfoghLo0_j6fQ0C9hGwkaFzRu1NsFIk88EM9SlaGT1pKN8J-Mb4JeIak4lifpqLOCzyrvHTCvYh6zkT8GXS1s1fdcUho-kA1OwcFO-U9JNasmnZeILoLq_6e64BLTA_X-tvhOzdIxbsEsS4uCTJSMKep9gDXTXtsA0-Pmf-09FXEA9QeECqwLWTTVyDlEHrOJENcKwkbojIj58Gx945n_I5tK-mBVP1KWGSvZApq18JuUSk1pOPOJ2G8FA4uz_MPmdyYc4Nrb_2vOL5nTCLf3YcfmAQ73haIy0YldaXKqRyfa9GftzcYJmMs_jTdFF6PrFTfx48HHqX58RN5Uxsv3S6U5Zz5FGLMLI32t9Il16BgIU0XIhu0zp0QcM1_SPYZYbWcxRXcwpGmXHtqvRhPvVjFKnRS82qjkuao-GC0?></g></svg>