<?plantuml 1.2026.1?><svg xmlns="http://www.w3.org/2000/svg" xmlns:xlink="http://www.w3.org/1999/xlink" contentStyleType="text/css" data-diagram-type="STATE" height="581px" preserveAspectRatio="none" style="width:502px;height:581px;" version="1.1" viewBox="0 0 502 581" width="502px" zoomAndPan="magnify"><title>V&#242;ng &#273;&#7901;i th&#7867; SRS t&#7915; v&#7921;ng</title><defs/><g><g class="title" data-source-line="12"><text fill="#000000" font-family="Arial" font-size="22" font-weight="bold" lengthAdjust="spacing" textLength="317.5713" x="87.9671" y="35.4209">V&#242;ng &#273;&#7901;i th&#7867; SRS t&#7915; v&#7921;ng</text></g><g><rect fill="#E8F2FF" height="50" rx="12.5" ry="12.5" style="stroke:#E7E5E4;stroke-width:1;" width="50" x="32.34" y="138.6094"/><line style="stroke:#E7E5E4;stroke-width:1;" x1="32.34" x2="82.34" y1="162.5781" y2="162.5781"/><text fill="#1C1917" font-family="Arial" font-size="12" lengthAdjust="spacing" textLength="21.0293" x="46.8254" y="154.748">M&#7899;i</text></g><g><rect fill="#F3E8FF" height="50" rx="12.5" ry="12.5" style="stroke:#E7E5E4;stroke-width:1;" width="77.2344" x="83.73" y="265.6094"/><line style="stroke:#E7E5E4;stroke-width:1;" x1="83.73" x2="160.9644" y1="289.5781" y2="289.5781"/><text fill="#1C1917" font-family="Arial" font-size="12" lengthAdjust="spacing" textLength="57.2344" x="93.73" y="281.748">&#272;ang h&#7885;c</text></g><g><rect fill="#ECFDF3" height="50" rx="12.5" ry="12.5" style="stroke:#E7E5E4;stroke-width:1;" width="60.541" x="27.07" y="395.3094"/><line style="stroke:#E7E5E4;stroke-width:1;" x1="27.07" x2="87.611" y1="419.2781" y2="419.2781"/><text fill="#1C1917" font-family="Arial" font-size="12" lengthAdjust="spacing" textLength="40.541" x="37.07" y="411.448">&#212;n t&#7853;p</text></g><g><rect fill="#FFF3D8" height="50" rx="12.5" ry="12.5" style="stroke:#E7E5E4;stroke-width:1;" width="60.7988" x="26.94" y="525.0094"/><line style="stroke:#E7E5E4;stroke-width:1;" x1="26.94" x2="87.7388" y1="548.9781" y2="548.9781"/><text fill="#1C1917" font-family="Arial" font-size="12" lengthAdjust="spacing" textLength="40.7988" x="36.94" y="541.148">H&#7885;c l&#7841;i</text></g><ellipse cx="57.34" cy="67.6094" fill="#FFFFFF" rx="10" ry="10" style="stroke:#000000;stroke-width:1;"/><g class="entity" data-qualified-name="GMN2" data-source-line="34" id="ent0003"><path d="M245.19,392.6094 L245.19,416.3094 L87.91,420.3094 L245.19,424.3094 L245.19,448.0078 A0,0 0 0 0 245.19,448.0078 L495.5054,448.0078 A0,0 0 0 0 495.5054,448.0078 L495.5054,402.6094 L485.5054,392.6094 L245.19,392.6094 A0,0 0 0 0 245.19,392.6094" fill="#FFFFFF" style="stroke:#000000;stroke-width:1;"/><path d="M485.5054,392.6094 L485.5054,402.6094 L495.5054,402.6094 L485.5054,392.6094" fill="#FFFFFF" style="stroke:#000000;stroke-width:1;"/><text fill="#000000" font-family="Arial" font-size="13" lengthAdjust="spacing" textLength="181.4541" x="251.19" y="409.6763">FSRS t&#237;nh ng&#224;y &#244;n ti&#7871;p theo</text><text fill="#000000" font-family="Arial" font-size="13" lengthAdjust="spacing" textLength="203.3027" x="251.19" y="424.8091">d&#7921;a tr&#234;n &#273;&#7897; kh&#243;, &#273;&#7897; b&#7873;n tr&#237; nh&#7899;</text><text fill="#000000" font-family="Arial" font-size="13" lengthAdjust="spacing" textLength="229.3154" x="251.19" y="439.9419">v&#224; k&#7871;t qu&#7843; &#273;&#225;nh gi&#225; c&#7911;a ng&#432;&#7901;i h&#7885;c.</text></g><!--link *start* to New--><g class="link" data-entity-1="ent0002" data-entity-2="ent0002" data-link-type="dependency" data-source-line="14" id="lnk3"><path d="M57.34,77.9694 C57.34,91.8994 57.34,112.5694 57.34,132.2594" fill="none" id="*start*-to-New" style="stroke:#78716C;stroke-width:1;"/><polygon fill="#78716C" points="57.34,138.2594,61.34,129.2594,57.34,133.2594,53.34,129.2594,57.34,138.2594" style="stroke:#78716C;stroke-width:1;"/></g><!--link New to Learning--><g class="link" data-entity-1="ent0002" data-entity-2="ent0003" data-link-type="dependency" data-source-line="21" id="lnk4"><path d="M70.03,189.0094 C81.48,211.0294 95.4829,237.9456 106.9229,259.9556" fill="none" id="New-to-Learning" style="stroke:#78716C;stroke-width:1;"/><polygon fill="#78716C" points="109.69,265.2794,109.0885,255.4489,107.3841,260.8429,101.9901,259.1384,109.69,265.2794" style="stroke:#78716C;stroke-width:1;"/><text fill="#000000" font-family="Arial" font-size="13" lengthAdjust="spacing" textLength="110.6333" x="95.34" y="231.6763">Qu&#234;n / Kh&#243; / Nh&#7899;</text></g><!--link New to Review--><g class="link" data-entity-1="ent0002" data-entity-2="ent0004" data-link-type="dependency" data-source-line="22" id="lnk5"><path d="M53.93,189.0394 C51.26,209.4594 47.77,239.3694 46.34,265.6094 C45.14,287.7994 45.17,293.4194 46.34,315.6094 C47.79,342.9094 50.5869,368.1281 53.2769,389.1081" fill="none" id="New-to-Review" style="stroke:#78716C;stroke-width:1;"/><polygon fill="#78716C" points="54.04,395.0594,56.8629,385.6237,53.4041,390.1,48.9279,386.6412,54.04,395.0594" style="stroke:#78716C;stroke-width:1;"/><text fill="#000000" font-family="Arial" font-size="13" lengthAdjust="spacing" textLength="18.0083" x="47.34" y="295.1763">D&#7877;</text></g><!--link Learning to Learning--><g class="link" data-entity-1="ent0003" data-entity-2="ent0003" data-link-type="dependency" data-source-line="24" id="lnk6"><path d="M161.35,278.9694 C179.78,277.6094 195.96,281.4994 195.96,290.6094 C195.96,299.7294 185.764,304.0477 167.334,302.6977" fill="none" id="Learning-to-Learning" style="stroke:#78716C;stroke-width:1;"/><polygon fill="#78716C" points="161.35,302.2594,170.0337,306.9062,166.3366,302.6246,170.6182,298.9276,161.35,302.2594" style="stroke:#78716C;stroke-width:1;"/><text fill="#000000" font-family="Arial" font-size="13" lengthAdjust="spacing" textLength="72.0713" x="201.96" y="295.1763">Qu&#234;n / Kh&#243;</text></g><!--link Learning to Review--><g class="link" data-entity-1="ent0003" data-entity-2="ent0004" data-link-type="dependency" data-source-line="25" id="lnk7"><path d="M109.96,315.9294 C98.4,338.6494 83.9519,367.0423 72.4019,389.7323" fill="none" id="Learning-to-Review" style="stroke:#78716C;stroke-width:1;"/><polygon fill="#78716C" points="69.68,395.0794,77.3275,388.8733,71.9482,390.6235,70.1981,385.2442,69.68,395.0794" style="stroke:#78716C;stroke-width:1;"/><text fill="#000000" font-family="Arial" font-size="13" lengthAdjust="spacing" textLength="112.9185" x="95.34" y="358.6763">Nh&#7899; &#273;&#7911; b&#432;&#7899;c / D&#7877;</text></g><!--link Review to Review--><g class="link" data-entity-1="ent0004" data-entity-2="ent0004" data-link-type="dependency" data-source-line="27" id="lnk8"><path d="M87.89,408.6294 C105.83,406.1394 122.61,410.0294 122.61,420.3094 C122.61,430.5894 111.7735,435.301 93.8335,432.821" fill="none" id="Review-to-Review" style="stroke:#78716C;stroke-width:1;"/><polygon fill="#78716C" points="87.89,431.9994,96.2575,437.1941,92.8429,432.6841,97.353,429.2695,87.89,431.9994" style="stroke:#78716C;stroke-width:1;"/><text fill="#000000" font-family="Arial" font-size="13" lengthAdjust="spacing" textLength="93.9326" x="128.61" y="424.8763">Kh&#243; / Nh&#7899; / D&#7877;</text></g><!--link Review to Relearning--><g class="link" data-entity-1="ent0004" data-entity-2="ent0005" data-link-type="dependency" data-source-line="28" id="lnk9"><path d="M34.61,445.6594 C27.3,455.0494 20.12,466.3394 16.34,478.0094 C11,494.5294 16.2241,506.8157 27.1741,519.9857" fill="none" id="Review-to-Relearning" style="stroke:#78716C;stroke-width:1;"/><polygon fill="#78716C" points="31.01,524.5994,28.3319,515.1216,27.8134,520.7547,22.1803,520.2362,31.01,524.5994" style="stroke:#78716C;stroke-width:1;"/><text fill="#000000" font-family="Arial" font-size="13" lengthAdjust="spacing" textLength="34.709" x="17.34" y="491.0763">Qu&#234;n</text></g><!--link Relearning to Review--><g class="link" data-entity-1="ent0005" data-entity-2="ent0004" data-link-type="dependency" data-source-line="31" id="lnk11"><path d="M57.34,524.7794 C57.34,502.0894 57.34,474.3494 57.34,451.6294" fill="none" id="Relearning-to-Review" style="stroke:#78716C;stroke-width:1;"/><polygon fill="#78716C" points="57.34,445.6294,53.34,454.6294,57.34,450.6294,61.34,454.6294,57.34,445.6294" style="stroke:#78716C;stroke-width:1;"/><text fill="#000000" font-family="Arial" font-size="13" lengthAdjust="spacing" textLength="56.5703" x="58.34" y="491.0763">Nh&#7899; / D&#7877;</text></g><!--link Relearning to Relearning--><g class="link" data-entity-1="ent0005" data-entity-2="ent0005" data-link-type="dependency" data-source-line="30" id="lnk10"><path d="M87.96,538.7994 C105.92,536.4094 122.74,540.1494 122.74,550.0094 C122.74,559.8694 111.8676,564.4008 93.9076,562.0108" fill="none" id="Relearning-to-Relearning" style="stroke:#78716C;stroke-width:1;"/><polygon fill="#78716C" points="87.96,561.2194,96.3537,566.3716,92.9163,561.8789,97.409,558.4415,87.96,561.2194" style="stroke:#78716C;stroke-width:1;"/><text fill="#000000" font-family="Arial" font-size="13" lengthAdjust="spacing" textLength="72.0713" x="128.74" y="554.5763">Qu&#234;n / Kh&#243;</text></g><?plantuml-src VPBFYzD05CVlyrSyjpTnbMpLrZq8wzOWg0Mtu4KyJ9DfCdHsfawcBIeUF7WK5Bp88cpn82W5VvsIWuTP_3_cF_5DciP4qLEIzpxp_NxpvfqpAJjcC1EKIv9DkPnHJOzXJADfejLSneTAA0r6KvbXYqdJeBAKnch9PG8JAZBMwCHiGkV2X4gQ8KNz0ysfQ9uqr31uIW1kA1qplN7fi1wxmYvZrH-iQa4KN0jwLMt4dp08ziYpXjQ1rcfPmRr-BxWQ4MAu4Gpksw-OxUorAzvnCAdB2nWTZS2uuXCiNF559eGyEFyGTdUlmv0j2Td4shdhYXE-0pJpLUZSx8TxORXjdhsYA9gwucLK8dSOrTBFe1DsaQmv-qQYKxwUbTGHM_1Iwp0SXDqjSykhW73vYbUK-AqMXjr1dn0VmGUiVVRXtjn-b709RgVs6pw66EQavYgdVHYuuWKXzR7_QBIXMg3KBSVt0SO_F-D7X0SsiXNKufjnjc2B4t_OUndHjXR_IFWNsCguJIKLJbNp93MW9XNaDwUyTRkMASZ4dZu6-ntlXhlynmpNWYb4Obm7YclkBVqVluKfsbwetiUkU2vzTmso73R0mfx251KCF9gx_3s2TeNw2RShY71Y5Atyp73pobsvI9YCmGSalm00?></g></svg>