<svg width="38" height="43" viewBox="0 0 38 43" fill="none" xmlns="http://www.w3.org/2000/svg"><path d="M7.67871 4.5L7.93457 4.5127C9.14259 4.63555 10.0936 5.6189 10.1709 6.83984H27.8291C27.9118 5.53389 28.9945 4.50007 30.3213 4.5H35C36.3807 4.5 37.5 5.61929 37.5 7V36.0156C37.4913 37.389 36.3753 38.5 35 38.5H2.98438C1.61103 38.4913 0.5 37.3753 0.5 36V7C0.5 6.13678 0.938055 5.3762 1.60156 4.92773C2.00083 4.658 2.48293 4.5 3 4.5H7.67871ZM31.2266 7.5C31.7231 7.95663 32.0352 8.61124 32.0352 9.33984V34.2451C32.0352 34.7028 31.9118 35.1313 31.6973 35.5H34.5V7.5H31.2266ZM3.5 35.5H6.30176C6.08735 35.1313 5.96387 34.7027 5.96387 34.2451V9.33984C5.96387 8.61115 6.27678 7.95664 6.77344 7.5H3.5V35.5ZM29.0352 33.1885C28.8134 33.2733 28.5729 33.3203 28.3213 33.3203H9.67871C9.42678 33.3203 9.18584 33.2735 8.96387 33.1885V33.7451H29.0352V33.1885ZM9.67871 31.3203H28.3213V25.1318H27.1787V25.6416C27.1786 27.5745 25.6117 29.1416 23.6787 29.1416H15.5361C13.6032 29.1416 12.0362 27.5745 12.0361 25.6416V25.1318H9.67871V31.3203ZM15.5361 15.2734C14.7077 15.2734 14.0362 15.9451 14.0361 16.7734V25.6416C14.0362 26.47 14.7077 27.1416 15.5361 27.1416H23.6787C24.5071 27.1416 25.1786 26.47 25.1787 25.6416V16.7734C25.1786 15.9451 24.5071 15.2734 23.6787 15.2734H15.5361ZM27.1787 23.1318H28.3213C28.5728 23.1318 28.8135 23.1789 29.0352 23.2637V19.2832H27.1787V23.1318ZM8.96387 23.2637C9.18577 23.1787 9.42687 23.1318 9.67871 23.1318H12.0361V19.2832H8.96387V23.2637ZM10.1787 17.2832H12.0361V16.7734C12.0362 14.8405 13.6032 13.2734 15.5361 13.2734H23.6787C25.6117 13.2734 27.1786 14.8405 27.1787 16.7734V17.2832H27.8213V9.83984H10.1787V17.2832Z" fill="white" stroke="white"/><rect x="7.46411" y="8.3396" width="23.0714" height="26.9057" fill="#AA572A"/><mask id="mask0_8_2091" style="mask-type:alpha" maskUnits="userSpaceOnUse" x="2" y="6" width="34" height="31"><path fill-rule="evenodd" clip-rule="evenodd" d="M2 6H8.67857V18.283H29.3214V6H36V37H2V6ZM29.3214 24.1321H8.67857V32.3208H29.3214V24.1321Z" fill="#FFC800"/></mask><g mask="url(#mask0_8_2091)"><path fill-rule="evenodd" clip-rule="evenodd" d="M3 6H7.67857C8.23086 6 8.67857 6.44772 8.67857 7V18.283H29.3214V7C29.3214 6.44772 29.7691 6 30.3214 6H35C35.5523 6 36 6.44772 36 7V36C36 36.5523 35.5523 37 35 37H3C2.44772 37 2 36.5523 2 36V7C2 6.44772 2.44772 6 3 6ZM29.3216 24.1321H8.67871V32.3208H29.3216V24.1321Z" fill="#FFC800"/></g><rect x="13.5359" y="14.7736" width="12.1429" height="12.8679" rx="2" fill="#FFC800"/><ellipse cx="19.6071" cy="20.0377" rx="3.03571" ry="2.92453" fill="#CD7900"/><path d="M18.6949 20.3123C19.0485 19.5256 20.1655 19.5256 20.5191 20.3123L22.128 23.8919C22.4254 24.5536 21.9414 25.3019 21.2159 25.3019H17.998C17.2725 25.3019 16.7885 24.5536 17.0859 23.8919L18.6949 20.3123Z" fill="#CD7900"/></svg>