<svg width="33" height="30" viewBox="0 0 33 30" fill="none" xmlns="http://www.w3.org/2000/svg"><path fill-rule="evenodd" clip-rule="evenodd" d="M6.24984 5.5508C2.24977 5.5508 3.50045 7.71859 5.24982 10.0508C6.75 12.0508 9.25 12.5508 11.75 13.0508C12.0833 13.2175 12.65 13.7508 12.25 14.5508C12 15.0508 11.3107 14.9044 10.25 14.5508C10.0317 14.478 9.81879 14.3947 9.61421 14.3147L9.6142 14.3147L9.61419 14.3146C8.4127 13.8445 7.5 13.4873 7.5 16.0508C7.5 19.0508 10.25 25.0508 16.75 25.0508C23.25 25.0508 28.75 19.5508 29.75 18.0508C30.4167 18.3841 31.85 18.4508 32.25 18.0508C32.3557 17.9451 32.75 15.5508 31.95 14.5508C32.7833 12.3841 33.55 7.4508 30.75 5.0508C27.95 2.6508 25.5833 2.38413 24.75 2.5508L24.6716 2.49475C23.4606 1.6288 20.7065 -0.340479 18.75 0.0508268C16.75 0.450827 14.9167 4.05083 14.25 5.55083L6.24984 5.5508ZM28.7498 16.0508C28.5832 16.7175 27.7498 17.8508 25.7498 17.0508C23.5976 16.1899 24.7805 13.1056 25.4703 11.3071L25.4703 11.3071L25.4704 11.3067C25.5818 11.0163 25.6803 10.7594 25.7498 10.5508C26.2498 9.05084 28.25 7.55084 29.75 8.55084C30.95 9.35084 30.9167 10.8841 30.75 11.5508C30.7501 11.0508 30.5501 10.0508 29.75 10.0508C28.7498 10.0508 27.75 11.5508 27.25 12.5508C26.75 13.5508 26.25 15.5509 27.25 16.0508C28.05 16.4508 28.5832 16.2175 28.7498 16.0508ZM28.2497 25.5506C28.7497 27.5506 26.7497 29.0507 25.2497 29.0507C22.7497 29.0507 21.9997 27.5507 22.4997 26.5507C22.7792 25.9918 23.2322 25.9547 23.7336 25.9137C24.1294 25.8814 24.5554 25.8466 24.95 25.5507C25.9503 24.8008 27.7497 23.5506 28.2497 25.5506ZM1.75 14.3008C0.783502 14.3008 0 15.0843 0 16.0508C0 17.0173 0.783502 17.8008 1.75 17.8008H3.75C4.7165 17.8008 5.5 17.0173 5.5 16.0508C5.5 15.0843 4.7165 14.3008 3.75 14.3008H1.75Z" fill="url(#paint0_linear_8_1287)"/><defs><linearGradient id="paint0_linear_8_1287" x1="21" y1="1" x2="16.3587" y2="29.0507" gradientUnits="userSpaceOnUse"><stop stop-color="#5AD3AE"/><stop offset="0.48" stop-color="#2F6CFF"/><stop offset="0.836261" stop-color="#A239FA"/></linearGradient></defs></svg>