<svg width="33" height="28" viewBox="0 0 33 28" fill="none" xmlns="http://www.w3.org/2000/svg"><rect y="13" width="33" height="14" rx="7" fill="#9069CD"/><rect x="3" width="26" height="27" rx="13" fill="#9069CD"/><rect x="7" y="3" width="18" height="25" rx="9" fill="#F3AD6D"/><circle cx="25.5" cy="15.5" r="3.5" fill="#F3AD6D"/><path d="M7.5 19.0001C9.433 19.0001 11 17.4331 11 15.5001C11 14.9633 10.8792 14.4547 10.6632 14.0001L5.5 12.6274C4.59326 13.2599 4 14.3107 4 15.5001C4 17.4331 5.567 19.0001 7.5 19.0001Z" fill="#F3AD6D"/><rect x="12" y="11" width="3" height="5" rx="1.5" fill="#D4924B"/><rect x="17" y="11" width="3" height="5" rx="1.5" fill="#D4924B"/><path d="M10 13C15.7701 13 20.589 8.92748 21.7392 3.5L14 1L6.5 6.5L5 11.9119C6.52211 12.6105 8.21557 13 10 13Z" fill="#9069CD"/><path d="M12 18C11.4477 18 10.9907 18.4513 11.0899 18.9946C11.1473 19.3084 11.2317 19.6161 11.3425 19.9134C11.5687 20.52 11.9002 21.0712 12.318 21.5355C12.7359 21.9998 13.232 22.3681 13.7779 22.6194C14.3239 22.8707 14.9091 23 15.5 23C16.0909 23 16.6761 22.8707 17.2221 22.6194C17.768 22.3681 18.2641 21.9998 18.682 21.5355C19.0998 21.0712 19.4313 20.52 19.6575 19.9134C19.7683 19.6161 19.8527 19.3084 19.9101 18.9946C20.0093 18.4513 19.5523 18 19 18L15.5 18H12Z" fill="white"/></svg>