<svg width="16" height="20" viewBox="0 0 16 20" fill="none" xmlns="http://www.w3.org/2000/svg"><path fill-rule="evenodd" clip-rule="evenodd" d="M9.15997 0.0692086C9.66286 0.243796 10 0.717731 10 1.25007V6.79533L14.5789 8.04412C14.9802 8.15355 15.3007 8.45539 15.434 8.84935C15.5674 9.24331 15.496 9.67779 15.2437 10.0084L7.9937 19.5084C7.67381 19.9276 7.12529 20.1009 6.62261 19.9417C6.11992 19.7825 5.7712 19.325 5.75094 18.7981L5.53619 13.2147L0.921117 11.956C0.516354 11.8456 0.193964 11.5396 0.0627352 11.1411C-0.0684941 10.7426 0.0089407 10.3048 0.26891 9.97552L7.76891 0.475517C8.09877 0.0576917 8.65707 -0.105379 9.15997 0.0692086Z" fill="#FFD900"/><path d="M5.25 9.00006L1.73876 10.5801C1.56994 10.6561 1.58605 10.9009 1.76336 10.9541L5.25 12.0001V9.00006Z" fill="#F7C100"/><path d="M9.92678 10.6722L13.686 9.31473C13.8696 9.24841 13.8592 8.98524 13.6708 8.93371L9.97629 7.92266L9.92678 10.6722Z" fill="#FFEF8F"/></svg>