<svg width="20" height="25" viewBox="0 0 20 25" fill="none" xmlns="http://www.w3.org/2000/svg"><path d="M9 16.5C9 17.0523 9.44772 17.5 10 17.5C10.5523 17.5 11 17.0523 11 16.5H9ZM10.7071 0.292893C10.3166 -0.0976311 9.68342 -0.0976311 9.29289 0.292893L2.92893 6.65685C2.53841 7.04738 2.53841 7.68054 2.92893 8.07107C3.31946 8.46159 3.95262 8.46159 4.34315 8.07107L10 2.41421L15.6569 8.07107C16.0474 8.46159 16.6805 8.46159 17.0711 8.07107C17.4616 7.68054 17.4616 7.04738 17.0711 6.65685L10.7071 0.292893ZM11 16.5V1H9V16.5H11Z" fill="#1CB0F6"/><path d="M1 11.5V21.5C1 22.6046 1.89543 23.5 3 23.5H17C18.1046 23.5 19 22.6046 19 21.5V11.5" stroke="#1CB0F6" stroke-width="2" stroke-linecap="round"/></svg>