<svg xmlns="http://www.w3.org/2000/svg" width="430" height="430" style="width:100%;height:100%;transform:translate3d(0,0,0);content-visibility:visible" viewBox="0 0 430 430"><defs><clipPath id="d"><path d="M0 0h430v430H0z"/></clipPath><clipPath id="g"><path d="M0 0h430v430H0z"/></clipPath><clipPath id="e"><path d="M0 0h430v430H0z"/></clipPath><mask id="h" mask-type="alpha" maskUnits="userSpaceOnUse"><g filter="url(#a)"><path fill="#fff" d="M0 0h430v430H0z" opacity="0"/><use xmlns:ns1="http://www.w3.org/1999/xlink" ns1:href="#b"/></g></mask><mask id="f" mask-type="alpha"><use xmlns:ns2="http://www.w3.org/1999/xlink" ns2:href="#c"/></mask><filter id="a" width="100%" height="100%" x="0%" y="0%" filterUnits="objectBoundingBox"><feComponentTransfer in="SourceGraphic"><feFuncA tableValues="1.0 0.0" type="table"/></feComponentTransfer></filter><path id="b" class="primary" style="display:none"/><g id="c" fill="#4BB3FD" style="display:block"><path d="M95.176 392.125c0-42.532 21.9-79.947 55.038-101.587 19.036-12.432 41.774-6.255 66.208-6.255s47.178-6.177 66.214 6.255c33.135 21.64 55.034 59.055 55.034 101.587z"/><path fill-opacity=".5" d="M-34.569 50.702c0-12.152 6.257-22.842 15.725-29.025C-13.405 18.125-6.908 19.89.073 19.89c6.98 0 13.479-1.765 18.918 1.787 9.467 6.183 15.724 16.873 15.724 29.025z" style="mix-blend-mode:multiply" transform="matrix(3.5 0 0 3.5 216.168 214.668)"/></g></defs><g clip-path="url(#d)"><g clip-path="url(#e)" style="display:block"><path fill="#B16836" d="m-24.343-17.126-.01-10.2c0-12.907 10.46-23.37 23.363-23.37H.94c12.903 0 23.363 10.463 23.363 23.37v9.971" class="primary" style="display:block" transform="translate(216.235 222.792)scale(3.72621)"/><g fill="#4AB3FC" style="display:block"><path d="M95.176 392.125c0-42.532 21.9-79.947 55.038-101.587 19.036-12.432 41.774-6.255 66.208-6.255s47.178-6.177 66.214 6.255c33.135 21.64 55.034 59.055 55.034 101.587z" class="tertiary"/><path fill-opacity=".5" d="M-34.569 50.702c0-12.152 6.257-22.842 15.725-29.025C-13.405 18.125-6.908 19.89.073 19.89c6.98 0 13.479-1.765 18.918 1.787 9.467 6.183 15.724 16.873 15.724 29.025z" class="tertiary" style="mix-blend-mode:multiply" transform="matrix(3.5 0 0 3.5 216.168 214.668)"/></g><g mask="url(#f)" style="display:block"><path fill="#4AB3FC" d="M138.676 392.125c0-42.532 21.9-79.947 55.038-101.587 19.036-12.432 40.278-15.187 64.711-15.187 24.434 0 48.675 2.755 67.711 15.187 33.135 21.64 55.034 59.055 55.034 101.587z" class="tertiary"/></g><path fill="#F8C8C0" d="M23.202-3.187h2.818a6.184 6.184 0 1 0 0-12.369h-2.818" class="secondary" style="display:block" transform="translate(209.9 216.781)scale(3.72621)"/><path fill="#F8C8C0" d="m-22.044-3.198-3.889.01a6.184 6.184 0 1 1 0-12.369h2.818s18.068-1.386 30.329-18.52l.005.002a23 23 0 0 1 9.208 5.639 23.06 23.06 0 0 1 6.771 16.36v7.93c0 12.777-10.354 23.131-23.131 23.131-12.763 0-23.117-10.354-23.117-23.13v-7.93c0-1.19.089-2.35.265-3.497" class="secondary" style="display:block" transform="translate(217.175 216.369)scale(3.72621)"/></g><g clip-path="url(#g)" style="display:none"><path class="tertiary" style="display:none"/><g mask="url(#h)" style="mix-blend-mode:multiply;display:none"><path class="tertiary"/></g><path class="primary" style="display:none"/><path class="secondary" style="display:none"/><path class="secondary" style="display:none"/></g></g></svg>