<svg width="47" height="53" viewBox="0 0 47 53" fill="none" xmlns="http://www.w3.org/2000/svg">
<path fill-rule="evenodd" clip-rule="evenodd" d="M5 23.7324C4.4022 23.3866 4 22.7403 4 22V5C4 4.82711 4.02194 4.65935 4.06318 4.49934C4.28543 3.63706 5.06832 3 6 3H40C40.9317 3 41.7146 3.63706 41.9368 4.49934C41.9781 4.65935 42 4.82712 42 5V22C42 22.7403 41.5978 23.3866 41 23.7324V25C41 25.5523 40.5523 26 40 26H38V27.2018H43C43.1073 27.2018 43.2107 27.2188 43.3076 27.25C43.7094 27.3798 44 27.7569 44 28.2018V48.2265C44 48.7787 43.5523 49.2265 43 49.2265H4C3.44771 49.2265 3 48.7787 3 48.2265V28.2018C3 28.0426 3.0372 27.8921 3.10337 27.7586C3.26679 27.4287 3.6069 27.2018 4 27.2018H9V26H6C5.44772 26 5 25.5523 5 25V23.7324ZM1.86823 24.8166C1.32038 24.0145 1 23.0447 1 22V5C1 2.23858 3.23858 0 6 0H40C42.7614 0 45 2.23858 45 5V22C45 22.8864 44.7694 23.7188 44.3648 24.4407C45.902 24.9986 47 26.472 47 28.2018V48.2265C47 50.4356 45.2091 52.2265 43 52.2265H4C1.79086 52.2265 0 50.4356 0 48.2265V28.2018C0 26.7763 0.74567 25.525 1.86823 24.8166Z" fill="white"/>
<rect x="4" y="3" width="38" height="21" rx="2" fill="#FFC800"/>
<rect x="5" y="7" width="36" height="19" rx="1" fill="#90461F" stroke="#AA572A" stroke-width="3"/>
<rect x="9" y="26" width="29" height="21" fill="#AA572A"/>
<path d="M10.0536 27.2018H4C3.44772 27.2018 3 27.6495 3 28.2018V48.2264C3 48.7787 3.44771 49.2264 4 49.2264H43C43.5523 49.2264 44 48.7787 44 48.2264V28.2018C44 27.6495 43.5523 27.2018 43 27.2018H36.9464C36.3941 27.2018 35.9464 27.6495 35.9464 28.2018V45.1427H11.0536V28.2018C11.0536 27.6495 10.6059 27.2018 10.0536 27.2018Z" fill="#FFC800"/>
<rect x="17" y="25" width="12" height="14" rx="2" fill="#FFC800"/>
<ellipse cx="23.0002" cy="30.0556" rx="2.91667" ry="3.05556" fill="#CD7900"/>
<path d="M22.0758 30.4582C22.4164 29.6342 23.5836 29.6342 23.9242 30.4582L25.4599 34.1736C25.732 34.832 25.2481 35.5556 24.5357 35.5556H21.4643C20.7519 35.5556 20.268 34.832 20.5401 34.1736L22.0758 30.4582Z" fill="#CD7900"/>
</svg>
