<svg width="17" height="22" viewBox="0 0 17 22" fill="none" xmlns="http://www.w3.org/2000/svg"><path d="M0 15.4119V6.14389C0 5.43516 0.375083 4.77936 0.98596 4.42002L7.48596 0.596494C8.11186 0.228319 8.88814 0.228319 9.51404 0.596494L16.014 4.42002C16.6249 4.77936 17 5.43516 17 6.14389V15.4119C17 16.0904 16.6561 16.7225 16.0865 17.0911L9.5865 21.297C8.92534 21.7248 8.07466 21.7248 7.4135 21.297L0.913497 17.0911C0.343916 16.7225 0 16.0904 0 15.4119Z" fill="#1CB0F6"/><path d="M6.93347 2.57699L2.15482 5.86231C1.47453 6.33001 1.62193 7.37398 2.40512 7.63504L4.57583 8.35861C4.84574 8.44858 5.14118 8.41932 5.3882 8.27817L7.99614 6.78792C8.30771 6.60988 8.5 6.27853 8.5 5.91968V3.40103C8.5 2.59585 7.59697 2.12083 6.93347 2.57699Z" fill="#DDF4FF"/></svg>