<svg width="24" height="24" viewBox="0 0 24 24" fill="none" xmlns="http://www.w3.org/2000/svg"><rect x="2.65527" y="0" width="21.1966" height="23.7254" rx="3.4385" fill="#CE82FF"/><path d="M2.65527 3.51493V6.15108H3.09466C3.82261 6.15108 4.41274 5.56096 4.41274 4.83301C4.41274 4.10505 3.82261 3.51493 3.09466 3.51493H2.65527Z" fill="#CE82FF"/><path d="M2.65527 10.5448V13.1809H3.09464C3.8226 13.1809 4.41272 12.5908 4.41272 11.8628C4.41272 11.1349 3.8226 10.5448 3.09464 10.5448H2.65527Z" fill="#CE82FF"/><path d="M2.65527 17.5744V20.2105H3.09464C3.8226 20.2105 4.41272 19.6204 4.41272 18.8925C4.41272 18.1645 3.8226 17.5744 3.09464 17.5744H2.65527Z" fill="#CE82FF"/><path d="M0.019043 4.83285C0.019043 4.10489 0.609167 3.51477 1.33712 3.51477H3.09456C3.82251 3.51477 4.41264 4.10489 4.41264 4.83285C4.41264 5.5608 3.82251 6.15093 3.09456 6.15093H1.33712C0.609167 6.15093 0.019043 5.5608 0.019043 4.83285Z" fill="#A56EFF"/><path d="M0.019043 11.8628C0.019043 11.1348 0.609167 10.5447 1.33712 10.5447H3.09456C3.82251 10.5447 4.41264 11.1348 4.41264 11.8628C4.41264 12.5907 3.82251 13.1808 3.09456 13.1808H1.33712C0.609167 13.1808 0.019043 12.5907 0.019043 11.8628Z" fill="#A56EFF"/><path d="M0.019043 18.8923C0.019043 18.1643 0.609167 17.5742 1.33712 17.5742H3.09456C3.82251 17.5742 4.41264 18.1643 4.41264 18.8923C4.41264 19.6202 3.82251 20.2104 3.09456 20.2104H1.33712C0.609167 20.2104 0.019043 19.6202 0.019043 18.8923Z" fill="#A56EFF"/><rect x="8.80633" y="3.95423" width="11.4234" height="2.1968" rx="1.0984" fill="white"/><rect x="8.80633" y="9.22654" width="11.4234" height="2.1968" rx="1.0984" fill="white"/><rect x="8.80633" y="14.4989" width="8.78687" height="2.1968" rx="1.0984" fill="white"/></svg>
