<svg width="27" height="21" viewBox="0 0 27 21" fill="none" xmlns="http://www.w3.org/2000/svg"><rect y="4.47546" width="10" height="10" rx="3" fill="currentColor"/><path d="M12 18.1069V2.19861C12 1.43079 11.1705 0.949424 10.5039 1.33037L2.00386 6.18751C1.69229 6.36556 1.5 6.6969 1.5 7.05576V12.4402C1.5 12.7746 1.6671 13.0868 1.9453 13.2723L10.4453 18.939C11.1099 19.382 12 18.9056 12 18.1069Z" fill="currentColor"/><path d="M16.2501 5.82853C16.973 6.2459 17.5764 6.84221 18.0022 7.56015C18.4281 8.27809 18.6621 9.09351 18.6818 9.92801C18.7014 10.7625 18.5061 11.588 18.1145 12.3252C17.7229 13.0624 17.1483 13.6865 16.4459 14.1375" stroke="currentColor" stroke-width="2" stroke-linecap="round"/><path d="M18.1738 1.00018C19.6409 1.84723 20.8655 3.05746 21.7298 4.51452C22.594 5.97158 23.069 7.62648 23.1089 9.32011C23.1488 11.0137 22.7523 12.6892 21.9576 14.1853C21.1629 15.6815 19.9967 16.948 18.5711 17.8632" stroke="currentColor" stroke-width="2" stroke-linecap="round"/></svg>