<?plantuml 1.2026.2?><svg xmlns="http://www.w3.org/2000/svg" xmlns:xlink="http://www.w3.org/1999/xlink" contentStyleType="text/css" data-diagram-type="DESCRIPTION" height="2022px" preserveAspectRatio="none" style="width:971px;height:2022px;background:#FFFFFF;" version="1.1" viewBox="0 0 971 2022" width="971px" zoomAndPan="magnify"><defs/><g><!--cluster Authentication--><g class="cluster" data-qualified-name="Authentication" data-source-line="6" id="ent0003"><rect fill="none" height="357" rx="2.5" ry="2.5" style="stroke:#181818;stroke-width:1;" width="163.34" x="146.71" y="7"/><text fill="#000000" font-family="sans-serif" font-size="14" font-weight="bold" lengthAdjust="spacing" textLength="106.0391" x="175.3605" y="22.5352">Authentication</text></g><!--cluster Practice Mode--><g class="cluster" data-qualified-name="Practice Mode" data-source-line="13" id="ent0008"><rect fill="none" height="348" rx="2.5" ry="2.5" style="stroke:#181818;stroke-width:1;" width="832.06" x="133.76" y="388"/><text fill="#000000" font-family="sans-serif" font-size="14" font-weight="bold" lengthAdjust="spacing" textLength="100.2559" x="499.6621" y="403.5352">Practice Mode</text></g><!--cluster Mock Test Mode--><g class="cluster" data-qualified-name="Mock Test Mode" data-source-line="22" id="ent0015"><rect fill="none" height="265" rx="2.5" ry="2.5" style="stroke:#181818;stroke-width:1;" width="825.91" x="122.02" y="1004"/><text fill="#000000" font-family="sans-serif" font-size="14" font-weight="bold" lengthAdjust="spacing" textLength="117.7695" x="476.0902" y="1019.5352">Mock Test Mode</text></g><!--cluster Progress & Goals--><g class="cluster" data-qualified-name="Progress . Goals" data-source-line="30" id="ent0021"><rect fill="none" height="431" rx="2.5" ry="2.5" style="stroke:#181818;stroke-width:1;" width="240.89" x="107.93" y="1293"/><text fill="#000000" font-family="sans-serif" font-size="14" font-weight="bold" lengthAdjust="spacing" textLength="123.2588" x="166.7456" y="1308.5352">Progress &amp; Goals</text></g><!--cluster Class--><g class="cluster" data-qualified-name="Class" data-source-line="38" id="ent0027"><rect fill="none" height="268" rx="2.5" ry="2.5" style="stroke:#181818;stroke-width:1;" width="248.87" x="103.94" y="1748"/><text fill="#000000" font-family="sans-serif" font-size="14" font-weight="bold" lengthAdjust="spacing" textLength="38.5889" x="209.0806" y="1763.5352">Class</text></g><!--entity UC01--><g class="entity" data-qualified-name="Authentication.UC01" data-source-line="7" id="ent0004"><ellipse cx="228.3817" cy="322.9988" fill="#F1F1F1" rx="40.5317" ry="25.3688" style="stroke:#181818;stroke-width:0.5;"/><text fill="#000000" font-family="sans-serif" font-size="14" lengthAdjust="spacing" textLength="45.1924" x="205.7855" y="318.1266">UC-01</text><text fill="#000000" font-family="sans-serif" font-size="14" lengthAdjust="spacing" textLength="55.3301" x="200.7166" y="334.6149">Register</text></g><!--entity UC02--><g class="entity" data-qualified-name="Authentication.UC02" data-source-line="8" id="ent0005"><ellipse cx="228.381" cy="67.0015" fill="#F1F1F1" rx="33.741" ry="25.4315" style="stroke:#181818;stroke-width:0.5;"/><text fill="#000000" font-family="sans-serif" font-size="14" lengthAdjust="spacing" textLength="45.1924" x="205.7849" y="64.7809">UC-02</text><text fill="#000000" font-family="sans-serif" font-size="14" lengthAdjust="spacing" textLength="37.5293" x="209.6164" y="81.2692">Login</text></g><!--entity UC03--><g class="entity" data-qualified-name="Authentication.UC03" data-source-line="9" id="ent0006"><ellipse cx="228.3838" cy="153.0033" fill="#F1F1F1" rx="36.0938" ry="26.0633" style="stroke:#181818;stroke-width:0.5;"/><text fill="#000000" font-family="sans-serif" font-size="14" lengthAdjust="spacing" textLength="45.1924" x="205.7876" y="149.1413">UC-03</text><text fill="#000000" font-family="sans-serif" font-size="14" lengthAdjust="spacing" textLength="47.3184" x="204.7246" y="165.6295">Logout</text></g><!--entity UC04--><g class="entity" data-qualified-name="Authentication.UC04" data-source-line="10" id="ent0007"><ellipse cx="228.3789" cy="238.0012" fill="#F1F1F1" rx="65.6689" ry="24.1512" style="stroke:#181818;stroke-width:0.5;"/><text fill="#000000" font-family="sans-serif" font-size="14" lengthAdjust="spacing" textLength="45.1924" x="205.7827" y="231.261">UC-04</text><text fill="#000000" font-family="sans-serif" font-size="14" lengthAdjust="spacing" textLength="97.7061" x="179.5259" y="247.7493">Refresh Token</text></g><!--entity UC10--><g class="entity" data-qualified-name="Practice Mode.UC10" data-source-line="14" id="ent0009"><ellipse cx="228.3845" cy="696.0031" fill="#F1F1F1" rx="78.6145" ry="23.9731" style="stroke:#181818;stroke-width:0.5;"/><text fill="#000000" font-family="sans-serif" font-size="14" lengthAdjust="spacing" textLength="45.1924" x="205.7883" y="688.9766">UC-10</text><text fill="#000000" font-family="sans-serif" font-size="14" lengthAdjust="spacing" textLength="118.8906" x="168.9392" y="705.4649">Practice Listening</text></g><!--entity UC11--><g class="entity" data-qualified-name="Practice Mode.UC11" data-source-line="15" id="ent0010"><ellipse cx="228.3752" cy="447.002" fill="#F1F1F1" rx="74.2152" ry="24.022" style="stroke:#181818;stroke-width:0.5;"/><text fill="#000000" font-family="sans-serif" font-size="14" lengthAdjust="spacing" textLength="45.1924" x="205.779" y="440.0546">UC-11</text><text fill="#000000" font-family="sans-serif" font-size="14" lengthAdjust="spacing" textLength="111.7129" x="172.5187" y="456.5428">Practice Reading</text></g><!--entity UC12--><g class="entity" data-qualified-name="Practice Mode.UC12" data-source-line="16" id="ent0011"><ellipse cx="228.3808" cy="530.0028" fill="#F1F1F1" rx="70.4208" ry="24.0728" style="stroke:#181818;stroke-width:0.5;"/><text fill="#000000" font-family="sans-serif" font-size="14" lengthAdjust="spacing" textLength="45.1924" x="205.7846" y="523.137">UC-12</text><text fill="#000000" font-family="sans-serif" font-size="14" lengthAdjust="spacing" textLength="105.5059" x="175.6279" y="539.6253">Practice Writing</text></g><!--entity UC13--><g class="entity" data-qualified-name="Practice Mode.UC13" data-source-line="17" id="ent0012"><ellipse cx="228.3758" cy="612.995" fill="#F1F1F1" rx="78.4258" ry="23.975" style="stroke:#181818;stroke-width:0.5;"/><text fill="#000000" font-family="sans-serif" font-size="14" lengthAdjust="spacing" textLength="45.1924" x="205.7796" y="605.9717">UC-13</text><text fill="#000000" font-family="sans-serif" font-size="14" lengthAdjust="spacing" textLength="118.583" x="169.0843" y="622.4599">Practice Speaking</text></g><!--entity UC14--><g class="entity" data-qualified-name="Practice Mode.UC14" data-source-line="18" id="ent0013"><ellipse cx="566.1624" cy="666.9989" fill="#F1F1F1" rx="104.0724" ry="23.8089" style="stroke:#181818;stroke-width:0.5;"/><text fill="#000000" font-family="sans-serif" font-size="14" lengthAdjust="spacing" textLength="45.1924" x="543.5662" y="659.705">UC-14</text><text fill="#000000" font-family="sans-serif" font-size="14" lengthAdjust="spacing" textLength="160.1729" x="486.076" y="676.1933">View Submission Result</text></g><!--entity UC15--><g class="entity" data-qualified-name="Practice Mode.UC15" data-source-line="19" id="ent0014"><ellipse cx="871.6615" cy="684.9977" fill="#F1F1F1" rx="78.1615" ry="23.9777" style="stroke:#181818;stroke-width:0.5;"/><text fill="#000000" font-family="sans-serif" font-size="14" lengthAdjust="spacing" textLength="45.1924" x="849.0653" y="677.9787">UC-15</text><text fill="#000000" font-family="sans-serif" font-size="14" lengthAdjust="spacing" textLength="118.1523" x="812.5854" y="694.467">View AI Feedback</text></g><!--entity UC20--><g class="entity" data-qualified-name="Mock Test Mode.UC20" data-source-line="23" id="ent0016"><ellipse cx="228.3781" cy="1145.9987" fill="#F1F1F1" rx="90.3581" ry="23.8787" style="stroke:#181818;stroke-width:0.5;"/><text fill="#000000" font-family="sans-serif" font-size="14" lengthAdjust="spacing" textLength="45.1924" x="205.7819" y="1138.8188">UC-20</text><text fill="#000000" font-family="sans-serif" font-size="14" lengthAdjust="spacing" textLength="137.9766" x="159.3898" y="1155.3071">List Available Exams</text></g><!--entity UC21--><g class="entity" data-qualified-name="Mock Test Mode.UC21" data-source-line="24" id="ent0017"><ellipse cx="228.3798" cy="1229.0014" fill="#F1F1F1" rx="84.3698" ry="23.9214" style="stroke:#181818;stroke-width:0.5;"/><text fill="#000000" font-family="sans-serif" font-size="14" lengthAdjust="spacing" textLength="45.1924" x="205.7836" y="1221.8912">UC-21</text><text fill="#000000" font-family="sans-serif" font-size="14" lengthAdjust="spacing" textLength="128.2559" x="164.2519" y="1238.3794">Start Exam Session</text></g><!--entity UC22--><g class="entity" data-qualified-name="Mock Test Mode.UC22" data-source-line="25" id="ent0018"><ellipse cx="566.1648" cy="1063" fill="#F1F1F1" rx="106.3448" ry="23.8" style="stroke:#181818;stroke-width:0.5;"/><text fill="#000000" font-family="sans-serif" font-size="14" lengthAdjust="spacing" textLength="45.1924" x="543.5686" y="1055.6916">UC-22</text><text fill="#000000" font-family="sans-serif" font-size="14" lengthAdjust="spacing" textLength="163.8438" x="484.2429" y="1072.1798">Answer Exam Questions</text></g><!--entity UC23--><g class="entity" data-qualified-name="Mock Test Mode.UC23" data-source-line="26" id="ent0019"><ellipse cx="871.6605" cy="1062.9981" fill="#F1F1F1" rx="60.2705" ry="24.2681" style="stroke:#181818;stroke-width:0.5;"/><text fill="#000000" font-family="sans-serif" font-size="14" lengthAdjust="spacing" textLength="45.1924" x="849.0643" y="1056.4437">UC-23</text><text fill="#000000" font-family="sans-serif" font-size="14" lengthAdjust="spacing" textLength="88.7988" x="827.261" y="1072.932">Submit Exam</text></g><!--entity UC24--><g class="entity" data-qualified-name="Mock Test Mode.UC24" data-source-line="27" id="ent0020"><ellipse cx="228.3766" cy="1063.0001" fill="#F1F1F1" rx="78.9166" ry="23.9701" style="stroke:#181818;stroke-width:0.5;"/><text fill="#000000" font-family="sans-serif" font-size="14" lengthAdjust="spacing" textLength="45.1924" x="205.7804" y="1055.9687">UC-24</text><text fill="#000000" font-family="sans-serif" font-size="14" lengthAdjust="spacing" textLength="119.3828" x="168.6852" y="1072.457">View Exam Result</text></g><!--entity UC30--><g class="entity" data-qualified-name="Progress . Goals.UC30" data-source-line="31" id="ent0022"><ellipse cx="228.3847" cy="1600.9974" fill="#F1F1F1" rx="104.4447" ry="23.8074" style="stroke:#181818;stroke-width:0.5;"/><text fill="#000000" font-family="sans-serif" font-size="14" lengthAdjust="spacing" textLength="45.1924" x="205.7885" y="1593.701">UC-30</text><text fill="#000000" font-family="sans-serif" font-size="14" lengthAdjust="spacing" textLength="160.7744" x="147.9975" y="1610.1893">View Progress Overview</text></g><!--entity UC31--><g class="entity" data-qualified-name="Progress . Goals.UC31" data-source-line="32" id="ent0023"><ellipse cx="228.3754" cy="1684.0036" fill="#F1F1F1" rx="79.5754" ry="23.9636" style="stroke:#181818;stroke-width:0.5;"/><text fill="#000000" font-family="sans-serif" font-size="14" lengthAdjust="spacing" textLength="45.1924" x="205.7793" y="1676.9618">UC-31</text><text fill="#000000" font-family="sans-serif" font-size="14" lengthAdjust="spacing" textLength="120.4561" x="168.1474" y="1693.45">View Spider Chart</text></g><!--entity UC32--><g class="entity" data-qualified-name="Progress . Goals.UC32" data-source-line="33" id="ent0024"><ellipse cx="228.3771" cy="1352.0025" fill="#F1F1F1" rx="71.8571" ry="24.0525" style="stroke:#181818;stroke-width:0.5;"/><text fill="#000000" font-family="sans-serif" font-size="14" lengthAdjust="spacing" textLength="45.1924" x="205.7809" y="1345.1041">UC-32</text><text fill="#000000" font-family="sans-serif" font-size="14" lengthAdjust="spacing" textLength="107.8574" x="174.4484" y="1361.5924">View Skill Detail</text></g><!--entity UC33--><g class="entity" data-qualified-name="Progress . Goals.UC33" data-source-line="34" id="ent0025"><ellipse cx="228.3842" cy="1435.0036" fill="#F1F1F1" rx="78.5642" ry="23.9736" style="stroke:#181818;stroke-width:0.5;"/><text fill="#000000" font-family="sans-serif" font-size="14" lengthAdjust="spacing" textLength="45.1924" x="205.788" y="1427.978">UC-33</text><text fill="#000000" font-family="sans-serif" font-size="14" lengthAdjust="spacing" textLength="118.8086" x="168.9799" y="1444.4663">Set Learning Goal</text></g><!--entity UC34--><g class="entity" data-qualified-name="Progress . Goals.UC34" data-source-line="35" id="ent0026"><ellipse cx="228.3808" cy="1517.9981" fill="#F1F1F1" rx="90.4508" ry="23.8781" style="stroke:#181818;stroke-width:0.5;"/><text fill="#000000" font-family="sans-serif" font-size="14" lengthAdjust="spacing" textLength="45.1924" x="205.7846" y="1510.8173">UC-34</text><text fill="#000000" font-family="sans-serif" font-size="14" lengthAdjust="spacing" textLength="138.127" x="159.3173" y="1527.3056">View ETA Estimation</text></g><!--entity UC40--><g class="entity" data-qualified-name="Class.UC40" data-source-line="39" id="ent0028"><ellipse cx="228.3772" cy="1975.0003" fill="#F1F1F1" rx="46.5972" ry="24.8303" style="stroke:#181818;stroke-width:0.5;"/><text fill="#000000" font-family="sans-serif" font-size="14" lengthAdjust="spacing" textLength="45.1924" x="205.781" y="1969.3193">UC-40</text><text fill="#000000" font-family="sans-serif" font-size="14" lengthAdjust="spacing" textLength="65.8574" x="195.4485" y="1985.8075">Join Class</text></g><!--entity UC41--><g class="entity" data-qualified-name="Class.UC41" data-source-line="40" id="ent0029"><ellipse cx="228.3768" cy="1807.0044" fill="#F1F1F1" rx="53.9068" ry="24.4644" style="stroke:#181818;stroke-width:0.5;"/><text fill="#000000" font-family="sans-serif" font-size="14" lengthAdjust="spacing" textLength="45.1924" x="205.7806" y="1800.7587">UC-41</text><text fill="#000000" font-family="sans-serif" font-size="14" lengthAdjust="spacing" textLength="78.21" x="189.2718" y="1817.2469">Leave Class</text></g><!--entity UC42--><g class="entity" data-qualified-name="Class.UC42" data-source-line="41" id="ent0030"><ellipse cx="228.385" cy="1890.997" fill="#F1F1F1" rx="108.435" ry="24.087" style="stroke:#181818;stroke-width:0.5;"/><text fill="#000000" font-family="sans-serif" font-size="14" lengthAdjust="spacing" textLength="45.1924" x="205.7888" y="1883.3882">UC-42</text><text fill="#000000" font-family="sans-serif" font-size="14" lengthAdjust="spacing" textLength="170.707" x="143.0315" y="1899.8765">View Instructor Feedback</text></g><!--entity Learner--><g class="entity" data-qualified-name="Learner" data-source-line="4" id="ent0002"><ellipse cx="31.4707" cy="956.26" fill="#F1F1F1" rx="8" ry="8" style="stroke:#181818;stroke-width:0.5;"/><path d="M31.4707,964.26 L31.4707,991.26 M18.4707,972.26 L44.4707,972.26 M31.4707,991.26 L18.4707,1006.26 M31.4707,991.26 L44.4707,1006.26" fill="none" style="stroke:#181818;stroke-width:0.5;"/><text fill="#000000" font-family="sans-serif" font-size="14" lengthAdjust="spacing" textLength="50.9414" x="6" y="1021.2952">Learner</text></g><!--link Learner to UC01--><g class="link" data-entity-1="ent0002" data-entity-2="ent0004" data-link-type="association" data-source-line="44" id="lnk31"><path d="M32.35,947.36 C32.64,832.75 38.5,497.05 95.94,407 C118.52,371.61 161.94,348.28 192.69,335.38" fill="none" id="Learner-UC01" style="stroke:#181818;stroke-width:1;"/></g><!--link Learner to UC02--><g class="link" data-entity-1="ent0002" data-entity-2="ent0005" data-link-type="association" data-source-line="45" id="lnk32"><path d="M32.68,947.43 C33.88,786.57 42,174.4 95.94,109 C119.87,79.99 163.89,70.76 194.35,67.97" fill="none" id="Learner-UC02" style="stroke:#181818;stroke-width:1;"/></g><!--link Learner to UC03--><g class="link" data-entity-1="ent0002" data-entity-2="ent0006" data-link-type="association" data-source-line="46" id="lnk33"><path d="M33.03,947.51 C35.54,797.12 47.89,254.58 95.94,196 C119.24,167.6 161.64,157.79 191.98,154.49" fill="none" id="Learner-UC03" style="stroke:#181818;stroke-width:1;"/></g><!--link Learner to UC04--><g class="link" data-entity-1="ent0002" data-entity-2="ent0007" data-link-type="association" data-source-line="47" id="lnk34"><path d="M33.48,947.41 C37.46,807.5 54,332.34 95.94,280 C112.42,259.44 139,248.79 163.97,243.34" fill="none" id="Learner-UC04" style="stroke:#181818;stroke-width:1;"/></g><!--link Learner to UC10--><g class="link" data-entity-1="ent0002" data-entity-2="ent0009" data-link-type="association" data-source-line="48" id="lnk35"><path d="M36.76,947.37 C44.13,887.58 60.96,776.43 86.94,747 C105.05,726.49 132.09,714.22 157.61,706.88" fill="none" id="Learner-UC10" style="stroke:#181818;stroke-width:1;"/></g><!--link Learner to UC11--><g class="link" data-entity-1="ent0002" data-entity-2="ent0010" data-link-type="association" data-source-line="49" id="lnk36"><path d="M32.19,947.37 C32.21,842.81 37.71,557.47 95.94,488 C111.14,469.86 134.24,459.62 156.86,453.88" fill="none" id="Learner-UC11" style="stroke:#181818;stroke-width:1;"/></g><!--link Learner to UC12--><g class="link" data-entity-1="ent0002" data-entity-2="ent0011" data-link-type="association" data-source-line="50" id="lnk37"><path d="M33.34,947.33 C36.18,855.56 48.01,628.12 95.94,572 C112.12,553.05 136.85,542.57 160.5,536.8" fill="none" id="Learner-UC12" style="stroke:#181818;stroke-width:1;"/></g><!--link Learner to UC13--><g class="link" data-entity-1="ent0002" data-entity-2="ent0012" data-link-type="association" data-source-line="51" id="lnk38"><path d="M35,947.34 C40.86,869.57 57.85,697.96 95.94,655 C111.04,637.97 133.03,627.8 154.72,621.74" fill="none" id="Learner-UC13" style="stroke:#181818;stroke-width:1;"/></g><!--link Learner to UC14--><g class="link" data-entity-1="ent0002" data-entity-2="ent0013" data-link-type="association" data-source-line="52" id="lnk39"><path d="M34.88,947.29 C39.31,909.3 51.8,852.24 86.94,818 C177.85,729.42 239.88,775.58 360.81,737 C411.01,720.99 467.66,701.47 508.56,687.11" fill="none" id="Learner-UC14" style="stroke:#181818;stroke-width:1;"/></g><!--link Learner to UC15--><g class="link" data-entity-1="ent0002" data-entity-2="ent0014" data-link-type="association" data-source-line="53" id="lnk40"><path d="M57.38,960.2 C66.14,952.23 76.42,943.98 86.94,938 C331.44,798.88 663.04,724.16 803.44,697.03" fill="none" id="Learner-UC15" style="stroke:#181818;stroke-width:1;"/></g><!--link Learner to UC20--><g class="link" data-entity-1="ent0002" data-entity-2="ent0016" data-link-type="association" data-source-line="54" id="lnk41"><path d="M52.82,1024.64 C70.71,1058.49 94.19,1102.54 95.94,1104 C112.06,1117.4 132.52,1126.54 152.46,1132.78" fill="none" id="Learner-UC20" style="stroke:#181818;stroke-width:1;"/></g><!--link Learner to UC21--><g class="link" data-entity-1="ent0002" data-entity-2="ent0017" data-link-type="association" data-source-line="55" id="lnk42"><path d="M49.62,1024.57 C61.98,1053.8 78.14,1095.24 87.94,1133 C94.04,1156.48 80.23,1168.51 95.94,1187 C109.82,1203.34 130.06,1213.39 150.52,1219.55" fill="none" id="Learner-UC21" style="stroke:#181818;stroke-width:1;"/></g><!--link Learner to UC22--><g class="link" data-entity-1="ent0002" data-entity-2="ent0018" data-link-type="association" data-source-line="56" id="lnk43"><path d="M57.28,987.96 C112.19,992.47 248.04,1004.54 360.81,1022 C403.72,1028.64 451.3,1038.07 489.75,1046.21" fill="none" id="Learner-UC22" style="stroke:#181818;stroke-width:1;"/></g><!--link Learner to UC23--><g class="link" data-entity-1="ent0002" data-entity-2="ent0019" data-link-type="association" data-source-line="57" id="lnk44"><path d="M57.35,971.21 C66.64,967.03 77.48,963.67 87.94,964 C348.9,972.12 414.45,982.36 672.5,1022 C713.09,1028.23 723.27,1029.78 763.5,1038 C781.84,1041.75 801.85,1046.29 819.55,1050.47" fill="none" id="Learner-UC23" style="stroke:#181818;stroke-width:1;"/></g><!--link Learner to UC24--><g class="link" data-entity-1="ent0002" data-entity-2="ent0020" data-link-type="association" data-source-line="58" id="lnk45"><path d="M57.14,996.23 C68.88,1001.07 83.11,1006.88 95.94,1012 C123.11,1022.83 153.55,1034.67 178.29,1044.2" fill="none" id="Learner-UC24" style="stroke:#181818;stroke-width:1;"/></g><!--link Learner to UC30--><g class="link" data-entity-1="ent0002" data-entity-2="ent0022" data-link-type="association" data-source-line="59" id="lnk46"><path d="M39.71,1024.61 C51.94,1091.58 76.49,1233.75 87.94,1355 C89.01,1366.29 89.07,1549.97 95.94,1559 C106.53,1572.92 121.77,1582.31 138.14,1588.63" fill="none" id="Learner-UC30" style="stroke:#181818;stroke-width:1;"/></g><!--link Learner to UC31--><g class="link" data-entity-1="ent0002" data-entity-2="ent0023" data-link-type="association" data-source-line="60" id="lnk47"><path d="M37.9,1024.55 C49.09,1105.56 74.8,1299.5 87.94,1463 C89.54,1482.84 83.84,1626.19 95.94,1642 C109.62,1659.88 130.98,1670.3 152.53,1676.31" fill="none" id="Learner-UC31" style="stroke:#181818;stroke-width:1;"/></g><!--link Learner to UC32--><g class="link" data-entity-1="ent0002" data-entity-2="ent0024" data-link-type="association" data-source-line="61" id="lnk48"><path d="M46.12,1024.39 C59.05,1062.39 77.93,1122.46 87.94,1176 C91.76,1196.39 85.16,1251.28 95.94,1269 C114.67,1299.78 149.61,1321.03 178.76,1334.32" fill="none" id="Learner-UC32" style="stroke:#181818;stroke-width:1;"/></g><!--link Learner to UC33--><g class="link" data-entity-1="ent0002" data-entity-2="ent0025" data-link-type="association" data-source-line="62" id="lnk49"><path d="M43.81,1024.42 C56.96,1070.79 78.08,1151.34 87.94,1222 C90.59,1240.95 84.25,1378.86 95.94,1394 C109.75,1411.88 131.27,1422.15 152.93,1427.98" fill="none" id="Learner-UC33" style="stroke:#181818;stroke-width:1;"/></g><!--link Learner to UC34--><g class="link" data-entity-1="ent0002" data-entity-2="ent0026" data-link-type="association" data-source-line="63" id="lnk50"><path d="M41.65,1024.72 C54.48,1080.69 77.4,1187.62 87.94,1280 C89.18,1290.83 89.34,1467.33 95.94,1476 C108.07,1491.91 126.26,1501.91 145.28,1508.16" fill="none" id="Learner-UC34" style="stroke:#181818;stroke-width:1;"/></g><!--link Learner to UC40--><g class="link" data-entity-1="ent0002" data-entity-2="ent0028" data-link-type="association" data-source-line="64" id="lnk51"><path d="M32.48,1024.73 C32.88,1193.75 38.12,1861.42 95.94,1933 C116.49,1958.44 152.49,1968.69 181.63,1972.72" fill="none" id="Learner-UC40" style="stroke:#181818;stroke-width:1;"/></g><!--link Learner to UC41--><g class="link" data-entity-1="ent0002" data-entity-2="ent0029" data-link-type="association" data-source-line="65" id="lnk52"><path d="M35.73,1024.53 C48.53,1175.96 94.79,1722.11 95.94,1724 C116,1756.97 154.66,1779 184.88,1792.03" fill="none" id="Learner-UC41" style="stroke:#181818;stroke-width:1;"/></g><!--link Learner to UC42--><g class="link" data-entity-1="ent0002" data-entity-2="ent0030" data-link-type="association" data-source-line="66" id="lnk53"><path d="M32.81,1024.7 C34.52,1183.97 44.39,1783.59 95.94,1849 C106.4,1862.26 121.06,1871.41 136.82,1877.69" fill="none" id="Learner-UC42" style="stroke:#181818;stroke-width:1;"/></g><!--link UC12 to UC14--><g class="link" data-entity-1="ent0011" data-entity-2="ent0013" data-link-type="dependency" data-source-line="68" id="lnk54"><path d="M282.99,545.46 C307.03,552.82 335.6,562.15 360.81,572 C417.66,594.2 475.74,621.9435 516.63,642.3235" fill="none" id="UC12-to-UC14" style="stroke:#181818;stroke-width:1;stroke-dasharray:7,7;"/><polygon fill="#181818" points="522,645,515.7293,637.4053,517.525,642.7696,512.1607,644.5653,522,645" style="stroke:#181818;stroke-width:1;"/><text fill="#000000" font-family="sans-serif" font-size="13" lengthAdjust="spacing" textLength="59.3569" x="369.81" y="573.0384">&#171;include&#187;</text></g><!--link UC13 to UC14--><g class="link" data-entity-1="ent0012" data-entity-2="ent0013" data-link-type="dependency" data-source-line="69" id="lnk55"><path d="M298.54,624.12 C351.15,632.58 417.876,643.318 474.066,652.348" fill="none" id="UC13-to-UC14" style="stroke:#181818;stroke-width:1;stroke-dasharray:7,7;"/><polygon fill="#181818" points="479.99,653.3,471.7387,647.9227,475.0533,652.5067,470.4693,655.8213,479.99,653.3" style="stroke:#181818;stroke-width:1;"/><text fill="#000000" font-family="sans-serif" font-size="13" lengthAdjust="spacing" textLength="59.3569" x="369.81" y="633.3384">&#171;include&#187;</text></g><!--link UC14 to UC15--><g class="link" data-entity-1="ent0013" data-entity-2="ent0014" data-link-type="dependency" data-source-line="70" id="lnk56"><path d="M667.38,672.94 C708.82,675.4 750.0806,677.8439 788.6006,680.1339" fill="none" id="UC14-to-UC15" style="stroke:#181818;stroke-width:1;stroke-dasharray:7,7;"/><polygon fill="#181818" points="794.59,680.49,785.8432,675.9629,789.5988,680.1933,785.3685,683.9488,794.59,680.49" style="stroke:#181818;stroke-width:1;"/><text fill="#000000" font-family="sans-serif" font-size="13" lengthAdjust="spacing" textLength="59.3569" x="703.5" y="672.0284">&#171;include&#187;</text></g><!--link UC21 to UC22--><g class="link" data-entity-1="ent0017" data-entity-2="ent0018" data-link-type="dependency" data-source-line="71" id="lnk57"><path d="M291.03,1212.58 C313.44,1205.77 338.68,1197.08 360.81,1187 C424.82,1157.85 488.7095,1116.3446 527.9195,1089.3246" fill="none" id="UC21-to-UC22" style="stroke:#181818;stroke-width:1;stroke-dasharray:7,7;"/><polygon fill="#181818" points="532.86,1085.92,523.1795,1087.7332,528.7429,1088.7571,527.7189,1094.3205,532.86,1085.92" style="stroke:#181818;stroke-width:1;"/><text fill="#000000" font-family="sans-serif" font-size="13" lengthAdjust="spacing" textLength="59.3569" x="369.81" y="1150.5284">&#171;include&#187;</text></g><!--link UC22 to UC23--><g class="link" data-entity-1="ent0018" data-entity-2="ent0019" data-link-type="dependency" data-source-line="72" id="lnk58"><path d="M672.88,1063 C719.24,1063 765.94,1063 805.27,1063" fill="none" id="UC22-to-UC23" style="stroke:#181818;stroke-width:1;stroke-dasharray:7,7;"/><polygon fill="#181818" points="811.27,1063,802.27,1059,806.27,1063,802.27,1067,811.27,1063" style="stroke:#181818;stroke-width:1;"/><text fill="#000000" font-family="sans-serif" font-size="13" lengthAdjust="spacing" textLength="59.3569" x="703.5" y="1059.5684">&#171;include&#187;</text></g><?plantuml-src VPJ1Zjem48RlUOeHXzvOOJjSgXKIejjgArPjbztjXOj9PeELu23ROLjLVVTEGeoIeUqDCv__p7onK-5hW523CyK-G6uSPi7KDl6biKVjz06EEYjrWPlmiq9eozeM5IQ9paBjOB96xIow2MWF_UyakM0mMJPXZpQOJBUv4_YL03GUC-sf-BoQpiJMFc9XVEX3dbSpmHcvjUkwC3O2aWEg0-ecH49n8cqVy-hGx-6fBl4IbIQ_H_r-TJIOoH0UwXolsnMphRqWwxPhQspHXuaPfyM0VaIT3rW-f903zhipOS3oUOKQi9iZwd80yz45ZVvYy0qspUvWlAVNGBtufegoHCftpFiTotluY9Zlw0X4TivyFTHP2K_emp-4IHBMUeBbIPjAxsZFtGzzy7sUvCeaATi4xKA7mGQxXYFDfKcIjhJ-3TqP_zPG9yHVuhavIUOw3-VyY75dCZhhKaUsvFM9gGiwLnxUmQTQL_xQWPhrQHVqomdTYVxfCnMte4HyPqUJqt2hFHc9C9UWP8HBKrNm0GEPZZ0Ne5e16CvtbKvDrtE4kGPrqV2qX3ioU-XlyHdd9bQLzdyPFwNnFzV6Gb_lDgTyv9H6fgPEECRui6aSzjxwu9hk8yJEQ2hRllgF4Kodvq_AU2tPMh5rEbxJpHwlMPvWUOBb2Put7wybovSiNx9yoV8borSiJx4ynV8KorCiBsLvASiZvKbh0Mvk5jsuy1vkRutDgYR7nQAjgV_KqbYRNzMaw6jINjVYywHYjJy0?></g></svg>