<svg width="24" height="22" viewBox="0 0 24 22" fill="none" xmlns="http://www.w3.org/2000/svg"><circle cx="10.4054" cy="11.5946" r="10.4054" fill="#58CC02"/><circle cx="10.4052" cy="11.5946" r="3.56757" fill="#ECFFDE"/><circle cx="10.4052" cy="11.5946" r="6.77703" stroke="#ECFFDE" stroke-width="2.5"/><path d="M15.4976 3.25927L15.9781 6.86262C16.0251 7.21542 16.2562 7.51664 16.5847 7.65353L19.351 8.80614C19.5181 8.87578 19.7098 8.84963 19.8522 8.73777L23.1134 6.17542C23.4137 5.93948 23.3493 5.4676 22.9968 5.32072L20.6997 4.3636C20.3969 4.23744 20.1752 3.9708 20.1065 3.65005L19.4903 0.77447C19.4133 0.415087 18.9879 0.258829 18.6965 0.482922L15.6884 2.79687C15.5468 2.90584 15.474 3.08212 15.4976 3.25927Z" fill="#58A700"/><path d="M10.405 11.5946L20.2158 4.1622" stroke="#478700" stroke-width="1.5" stroke-linecap="round"/></svg>